<?xml version="1.0" encoding="UTF-8" standalone="no"?><!DOCTYPE svg PUBLIC "-//W3C//DTD SVG 1.1//EN" "http://www.w3.org/Graphics/SVG/1.1/DTD/svg11.dtd"><svg width="100%" height="100%" viewBox="0 0 300 300" version="1.1" xmlns="http://www.w3.org/2000/svg" xmlns:xlink="http://www.w3.org/1999/xlink" xml:space="preserve" xmlns:serif="http://www.serif.com/" style="fill-rule:evenodd;clip-rule:evenodd;stroke-linejoin:round;stroke-miterlimit:2;"><g><path d="M101.805,138.775c26.35,0 44.03,-15.81 44.03,-39.61l0,-0.85c0,-0.51 -1.19,-0.68 -2.89,-0.85l-18.19,-0.85c-1.87,-0.17 -2.89,0.68 -2.89,1.87c0,11.73 -7.99,19.72 -20.06,19.72c-12.24,0 -20.23,-7.99 -20.23,-19.72l0,-40.97c0,-11.9 7.99,-19.89 20.23,-19.89c12.07,0 20.06,7.99 20.06,19.89l0,1.02c0,0.51 1.19,1.02 3.06,0.85l18.19,-1.19c1.7,-0.17 2.72,-0.85 2.72,-1.87c0,-23.63 -17.68,-39.27 -44.03,-39.27c-26.69,0 -44.2,16.32 -44.2,41.14l0,39.27c0,24.82 17.51,41.31 44.2,41.31Z" style="fill:#fff;fill-rule:nonzero;"/><path d="M203.635,138.775c26.69,0 43.52,-13.77 43.52,-34.51c0,-23.12 -21.42,-29.75 -36.89,-35.36c-18.87,-6.63 -26.35,-9.69 -26.35,-18.53c0,-7.99 6.12,-12.75 17,-12.75c14.28,0 21.93,8.33 21.93,17.17l0,1.7c0,1.02 1.02,1.7 2.89,1.7l17.85,0c1.87,0 2.89,-1.02 2.89,-2.89l0,-1.7c0,-21.93 -18.53,-36.55 -44.71,-36.55c-24.31,0 -41.48,12.75 -41.48,33.66c0,22.44 20.4,30.43 38.08,36.55c16.15,5.95 24.82,9.01 24.82,17.68c0,6.8 -4.76,13.26 -17.68,13.26c-13.77,0 -22.44,-7.48 -22.44,-16.15l0,-2.38c0,-1.36 -1.02,-2.21 -2.89,-2.21l-17.85,0c-1.87,0 -2.89,1.02 -2.89,2.89l0,2.89c0,21.59 17.51,35.53 44.2,35.53Z" style="fill:#fff;fill-rule:nonzero;"/><path d="M141.245,162.415l-83.98,0c-1.87,0 -2.89,1.02 -2.89,2.89l0,14.96c0,1.87 1.02,2.89 2.89,2.89l28.56,0c0.68,0 1.02,0.34 1.02,1.02l0,94.35c0,1.87 1.02,2.89 2.89,2.89l18.19,0c1.87,0 2.89,-1.02 2.89,-2.89l0,-94.35c0,-0.68 0.34,-1.02 1.02,-1.02l29.41,0c1.87,0 2.89,-1.02 2.89,-2.89l0,-14.96c0,-1.87 -1.02,-2.89 -2.89,-2.89Z" style="fill:#fff;fill-rule:nonzero;"/><path d="M196.495,282.775c26.35,0 44.03,-15.81 44.03,-39.61l0,-0.85c0,-0.51 -1.19,-0.68 -2.89,-0.85l-18.19,-0.85c-1.87,-0.17 -2.89,0.68 -2.89,1.87c0,11.73 -7.99,19.72 -20.06,19.72c-12.24,0 -20.23,-7.99 -20.23,-19.72l0,-40.97c0,-11.9 7.99,-19.89 20.23,-19.89c12.07,0 20.06,7.99 20.06,19.89l0,1.02c0,0.51 1.19,1.02 3.06,0.85l18.19,-1.19c1.7,-0.17 2.72,-0.85 2.72,-1.87c0,-23.63 -17.68,-39.27 -44.03,-39.27c-26.69,0 -44.2,16.32 -44.2,41.14l0,39.27c0,24.82 17.51,41.31 44.2,41.31Z" style="fill:#fff;fill-rule:nonzero;"/></g></svg>