<?xml version="1.0" encoding="UTF-8" standalone="no"?><!DOCTYPE svg PUBLIC "-//W3C//DTD SVG 1.1//EN" "http://www.w3.org/Graphics/SVG/1.1/DTD/svg11.dtd"><svg width="100%" height="100%" viewBox="0 0 107 75" version="1.1" xmlns="http://www.w3.org/2000/svg" xmlns:xlink="http://www.w3.org/1999/xlink" xml:space="preserve" xmlns:serif="http://www.serif.com/" style="fill-rule:evenodd;clip-rule:evenodd;stroke-linejoin:round;stroke-miterlimit:2;"><g><path d="M13.108,74.025c-0.427,0 -1.007,-0.092 -1.739,-0.275c-0.732,-0.183 -1.25,-0.274 -1.555,-0.274c-0.732,-0.061 -1.739,-0.015 -3.02,0.137c-1.281,0.153 -2.425,0.214 -3.431,0.183c-1.007,-0.03 -1.876,-0.229 -2.608,-0.595c-0.549,-1.281 -0.671,-4.239 -0.366,-8.875c0.305,-4.636 0.396,-7.686 0.274,-9.151c0,-0.244 -0.076,-0.625 -0.228,-1.143c-0.153,-0.519 -0.229,-0.931 -0.229,-1.236c-0.061,-0.366 -0.031,-0.823 0.091,-1.372c0.122,-0.549 0.183,-0.946 0.183,-1.19c0,-0.61 -0.061,-1.448 -0.183,-2.516c-0.122,-1.067 -0.167,-2.028 -0.137,-2.882c0.031,-0.854 0.198,-1.708 0.503,-2.562c-0.183,-0.671 -0.305,-1.434 -0.366,-2.288c-0.061,-0.854 -0.076,-1.601 -0.045,-2.242c0.03,-0.64 0.076,-1.494 0.137,-2.562c0.061,-1.067 0.091,-1.875 0.091,-2.424l0.275,-6.68c0,-0.61 -0.122,-1.449 -0.366,-2.516c-0.244,-1.068 -0.366,-1.846 -0.366,-2.334c-0.061,-0.61 0,-1.555 0.183,-2.836c0.183,-1.281 0.274,-2.196 0.274,-2.745c0,-0.305 -0.076,-0.778 -0.228,-1.418c-0.153,-0.641 -0.229,-1.083 -0.229,-1.327c0,-0.244 0.091,-0.656 0.274,-1.236c0.183,-0.579 0.305,-1.021 0.366,-1.326c0.061,-0.671 0,-1.724 -0.183,-3.157c-0.183,-1.434 -0.228,-2.684 -0.137,-3.752c0.092,-1.067 0.473,-1.967 1.144,-2.699c0.61,-0.122 1.784,-0.213 3.523,-0.274c1.738,-0.061 3.004,-0.214 3.797,-0.458c0.366,0.122 2.242,0.198 5.627,0.229c3.386,0.03 5.323,0.351 5.811,0.961c0.488,0.61 0.549,2.104 0.183,4.483c0.061,1.525 0.091,4.041 0.091,7.549c0,3.508 0.153,6.268 0.458,8.281c-0.61,1.952 -0.763,5.002 -0.458,9.15c0.305,4.148 0.214,7.137 -0.274,8.967l0.732,2.837c-0.244,0.183 -0.336,1.052 -0.275,2.608c0.061,1.555 0.092,2.424 0.092,2.607c0,0.305 -0.061,0.763 -0.183,1.373c-0.122,0.61 -0.183,1.037 -0.183,1.281c-0.061,0.366 -0.031,0.9 0.091,1.601c0.122,0.702 0.183,1.205 0.183,1.51c0,0.61 -0.091,1.586 -0.274,2.928c-0.183,1.342 -0.244,2.349 -0.183,3.02c0,0.976 0.106,2.501 0.32,4.575c0.213,2.074 0.335,3.614 0.366,4.62c0.031,1.007 -0.137,2.547 -0.503,4.621c-0.244,0.244 -0.519,0.397 -0.824,0.458c-0.305,0.061 -0.686,0.076 -1.144,0.046c-0.457,-0.031 -0.777,-0.046 -0.96,-0.046c-0.427,0 -1.129,0.076 -2.105,0.229c-0.976,0.152 -1.738,0.198 -2.287,0.137Zm4.209,-69.907l0,-0.366c-0.061,-0.122 -0.168,-0.153 -0.321,-0.092c-0.152,0.061 -0.289,0.092 -0.411,0.092c0,0.366 0.244,0.488 0.732,0.366Zm-9.516,0c0.305,-0.244 0.457,-0.366 0.457,-0.366l-0.274,0c0,0.061 -0.031,0.122 -0.092,0.183c-0.061,0.061 -0.091,0.122 -0.091,0.183Zm3.568,0.549l0.275,0l0,-0.275l-0.275,0l0,0.275Zm-6.954,3.477l0.457,0c0.183,0 0.275,-0.031 0.275,-0.092c-0.061,0 -0.107,-0.076 -0.137,-0.229c-0.031,-0.152 -0.077,-0.228 -0.138,-0.228c-0.305,0.244 -0.457,0.427 -0.457,0.549Zm-0.549,1.372c0.061,-0.183 0.198,-0.366 0.412,-0.549c0.213,-0.183 0.35,-0.335 0.411,-0.457c-0.122,0 -0.274,-0.046 -0.457,-0.138c-0.183,-0.091 -0.366,-0.106 -0.549,-0.045c0.061,0.122 0.076,0.274 0.046,0.457c-0.031,0.183 -0.046,0.351 -0.046,0.503c0,0.153 0.061,0.229 0.183,0.229Zm3.752,-0.64c0.122,-0.061 0.274,-0.077 0.457,-0.046c0.183,0.03 0.336,0.046 0.458,0.046c0.122,-0.366 0.03,-0.549 -0.275,-0.549c0,0.183 -0.213,0.366 -0.64,0.549Zm5.49,0.457l0.366,0l0,-0.457l-0.366,0l0,0.457Zm-5.856,0.275c-0.061,-0.366 -0.306,-0.549 -0.733,-0.549c-0.061,0.305 0,0.518 0.183,0.64c0.183,0.122 0.367,0.092 0.55,-0.091Zm10.065,2.104l0,-1.189c-0.488,0.732 -0.488,1.128 0,1.189Zm-1.464,4.85c0.061,0 0.152,-0.031 0.274,-0.092c0.122,-0.061 0.244,-0.091 0.366,-0.091c-0.061,-0.122 -0.076,-0.275 -0.046,-0.458c0.031,-0.183 0.031,-0.32 0,-0.411c-0.03,-0.092 -0.137,-0.138 -0.32,-0.138c-0.061,0.061 -0.091,0.153 -0.091,0.275c-0.122,0.122 -0.244,0.183 -0.366,0.183c-0.061,0.122 -0.031,0.244 0.091,0.366c0.122,0.122 0.153,0.244 0.092,0.366Zm-11.987,0.732c0.854,0.183 1.372,0.183 1.555,0c0.122,-0.732 -0.091,-1.098 -0.64,-1.098c-0.549,0.061 -0.854,0.427 -0.915,1.098Zm7.503,0l0.549,0c0,-0.366 -0.091,-0.58 -0.274,-0.641c0,0.061 -0.061,0.138 -0.183,0.229c-0.122,0.092 -0.153,0.229 -0.092,0.412Zm4.301,0.823c0.549,-0.122 0.671,-0.518 0.366,-1.189c-0.61,0.183 -0.732,0.579 -0.366,1.189Zm-10.523,0.275l0.823,0.183c0.122,0 0.244,-0.061 0.366,-0.183c0.122,-0.427 -0.061,-0.702 -0.549,-0.824c-0.488,-0.061 -0.701,0.153 -0.64,0.641l0,0.183Zm2.837,0.915c0.549,0 0.884,-0.397 1.006,-1.19c-0.488,-0.305 -0.869,-0.259 -1.144,0.138c-0.274,0.396 -0.228,0.747 0.138,1.052Zm5.673,-0.458c0.366,0.061 0.579,-0.03 0.64,-0.274c-0.122,-0.122 -0.274,-0.168 -0.457,-0.137c-0.183,0.03 -0.244,0.167 -0.183,0.411Zm-8.968,5.033l0,-0.641l-0.366,0c0,0.427 0.122,0.641 0.366,0.641Zm0.366,2.196c0.244,0.061 0.382,-0.046 0.412,-0.32c0.031,-0.275 -0.076,-0.412 -0.32,-0.412c-0.122,0.122 -0.153,0.366 -0.092,0.732Zm12.536,5.124c0,-0.61 -0.091,-0.915 -0.274,-0.915c-0.122,0.122 -0.153,0.29 -0.092,0.503c0.061,0.214 0.183,0.351 0.366,0.412Zm-6.405,1.281c-0.061,-0.061 -0.183,-0.198 -0.366,-0.412c-0.183,-0.213 -0.366,-0.32 -0.549,-0.32c0,0.183 -0.091,0.275 -0.274,0.275c0.061,0.366 0.228,0.625 0.503,0.777c0.274,0.153 0.503,0.046 0.686,-0.32Zm1.922,2.654c0.305,-0.061 0.457,-0.26 0.457,-0.595c0,-0.336 -0.152,-0.534 -0.457,-0.595c-0.183,0.366 -0.183,0.763 0,1.19Zm4.209,3.66c0.122,-0.488 0.122,-0.793 0,-0.915c-0.244,-0.061 -0.412,-0.016 -0.504,0.137c-0.091,0.152 -0.167,0.351 -0.228,0.595c0.122,0 0.244,0.045 0.366,0.137c0.122,0.091 0.244,0.107 0.366,0.046Zm-0.824,0.732c0,-0.366 -0.122,-0.58 -0.366,-0.641c-0.183,0.183 -0.061,0.397 0.366,0.641Zm-3.019,0c0.183,0.061 0.305,0.03 0.366,-0.092c0,-0.183 -0.061,-0.305 -0.183,-0.366l-0.183,0l0,0.458Zm2.836,1.189c0.122,0.122 0.275,0.137 0.458,0.046c0.183,-0.092 0.274,-0.229 0.274,-0.412c-0.488,0 -0.732,0.122 -0.732,0.366Zm-8.235,2.471l1.098,-0.275c-0.061,-0.305 -0.366,-0.61 -0.915,-0.915c-0.305,0.488 -0.457,0.793 -0.457,0.915c0.183,0 0.274,0.092 0.274,0.275Zm-2.471,1.464c0.122,0 0.183,-0.153 0.183,-0.458c0,0.122 -0.061,0.183 -0.183,0.183l0,0.275Zm9.974,1.006c-0.061,-0.366 -0.351,-0.594 -0.869,-0.686c-0.519,-0.091 -0.961,-0.046 -1.327,0.137c0,0.183 0.046,0.305 0.137,0.366c0.092,0.061 0.214,0.107 0.366,0.138c0.153,0.03 0.336,0.045 0.549,0.045l1.144,0Zm-10.248,1.281c-0.427,-0.122 -0.671,-0.152 -0.732,-0.091c-0.061,0.244 0.046,0.381 0.32,0.412c0.275,0.03 0.412,-0.077 0.412,-0.321Zm1.281,2.105c0.183,0.061 0.32,0.046 0.412,-0.046c0.091,-0.091 0.198,-0.137 0.32,-0.137c0.061,-0.122 0.061,-0.244 0,-0.366c-0.061,-0.122 -0.091,-0.244 -0.091,-0.366c-0.428,0 -0.733,0.091 -0.916,0.274c0.122,0.061 0.183,0.183 0.183,0.366c0,0.183 0.031,0.275 0.092,0.275Zm2.196,1.738c0.122,-0.305 0.031,-0.457 -0.274,-0.457c-0.305,0 -0.458,0.091 -0.458,0.274c0.122,0 0.244,0.046 0.366,0.138c0.122,0.091 0.244,0.106 0.366,0.045Zm6.497,2.745c0.854,0 1.25,-0.122 1.189,-0.366c-0.305,-0.183 -0.747,-0.61 -1.327,-1.281c-0.579,-0.671 -1.082,-1.037 -1.509,-1.098c0.122,0.305 0.274,0.61 0.457,0.915c0.183,0.305 0.397,0.641 0.641,1.007c0.244,0.366 0.427,0.64 0.549,0.823Zm-8.235,-1.464l0.274,0l0,-0.274l-0.274,0l0,0.274Zm4.849,1.373c0.366,0 0.61,-0.061 0.732,-0.183c0.061,-0.427 -0.183,-0.763 -0.732,-1.007c-0.122,0.122 -0.183,0.321 -0.183,0.595c0,0.275 0.061,0.473 0.183,0.595Zm-8.052,2.928l0.549,-0.457l0,-0.458c0,-0.183 -0.015,-0.336 -0.046,-0.458c-0.03,-0.122 -0.061,-0.259 -0.091,-0.411c-0.031,-0.153 -0.092,-0.26 -0.183,-0.321c-0.092,-0.061 -0.229,-0.091 -0.412,-0.091l0,1.052c0,0.519 0.061,0.9 0.183,1.144Zm12.17,-0.732l0,-0.32c0,-0.153 -0.031,-0.244 -0.092,-0.275c-0.061,-0.03 -0.152,-0.046 -0.274,-0.046c0,0.366 0.122,0.58 0.366,0.641Zm-4.575,1.556c0.793,-0.244 1.281,-0.519 1.464,-0.824c-0.061,0 -0.153,-0.091 -0.275,-0.274c-0.061,-0.122 -0.152,-0.183 -0.274,-0.183c-0.061,0.122 -0.183,0.259 -0.366,0.411c-0.183,0.153 -0.305,0.26 -0.366,0.321c-0.122,-0.183 -0.275,-0.336 -0.458,-0.458c0,0.183 -0.091,0.275 -0.274,0.275c-0.061,0.183 0.015,0.32 0.228,0.411c0.214,0.092 0.321,0.199 0.321,0.321Zm2.47,0.457l0.366,-0.549l-0.915,-0.457c0,0.122 -0.046,0.228 -0.137,0.32c-0.092,0.091 -0.107,0.229 -0.046,0.412l0.732,0.274Zm2.196,-0.274c0.366,0 0.58,-0.183 0.641,-0.549c-0.122,0 -0.275,-0.031 -0.458,-0.092c-0.183,-0.061 -0.335,-0.03 -0.457,0.092c-0.061,0.122 -0.031,0.228 0.091,0.32c0.122,0.091 0.183,0.168 0.183,0.229Zm-8.601,1.921c0.244,0.244 0.549,0.244 0.915,0c0,-0.305 -0.046,-0.518 -0.137,-0.64c-0.092,-0.122 -0.259,-0.153 -0.503,-0.092c0.061,0.183 0.03,0.305 -0.092,0.366c-0.122,0.061 -0.183,0.183 -0.183,0.366Zm-0.183,1.922l0,-0.915c-0.915,-0.366 -1.403,-0.549 -1.464,-0.549c-0.244,0.488 -0.153,0.899 0.274,1.235c0.427,0.335 0.824,0.412 1.19,0.229Zm2.654,0.823c0.122,-0.122 0.061,-0.366 -0.183,-0.732c0.854,-0.122 1.006,-0.457 0.457,-1.006c-0.366,-0.366 -0.793,-0.519 -1.281,-0.458c0,0.122 -0.03,0.244 -0.091,0.366c-0.061,0.122 -0.092,0.244 -0.092,0.366c0.244,0.122 0.412,0.397 0.503,0.824c0.092,0.427 0.321,0.64 0.687,0.64Zm3.202,0.275c1.403,-0.549 2.196,-1.068 2.379,-1.556c-0.488,-0.427 -0.976,-0.427 -1.464,0c-0.488,0.427 -0.793,0.946 -0.915,1.556Zm-6.863,-0.092c0.244,0 0.427,-0.061 0.549,-0.183c0.061,-0.183 0.031,-0.305 -0.091,-0.366c-0.122,-0.061 -0.275,-0.091 -0.458,-0.091l0,0.64Zm8.236,2.013l0.274,-0.732c-0.122,0 -0.274,-0.076 -0.457,-0.229c-0.183,-0.152 -0.366,-0.228 -0.549,-0.228c-0.183,0.305 -0.214,0.594 -0.092,0.869c0.122,0.274 0.397,0.381 0.824,0.32Zm-11.164,1.007c0.244,0.061 0.488,0.03 0.732,-0.092c-0.122,-0.305 -0.152,-0.671 -0.091,-1.098c0.061,-0.427 -0.061,-0.64 -0.366,-0.64c-0.183,0.183 -0.259,0.488 -0.229,0.915c0.031,0.427 0.015,0.732 -0.046,0.915Zm2.928,1.098c0.183,0.061 0.321,0.045 0.412,-0.046c0.092,-0.092 0.198,-0.137 0.321,-0.137c0,-0.61 -0.245,-0.915 -0.733,-0.915c-0.122,0.122 -0.122,0.488 0,1.098Zm5.308,0.823l0.549,-0.457c0,-0.427 -0.061,-0.687 -0.183,-0.778c-0.122,-0.092 -0.397,-0.107 -0.824,-0.046c-0.183,0.549 -0.183,0.946 0,1.19c0.122,-0.061 0.275,-0.031 0.458,0.091Zm-6.223,-0.457c0,-0.366 -0.122,-0.549 -0.366,-0.549c-0.244,0.183 -0.244,0.366 0,0.549c0.122,0.061 0.244,0.061 0.366,0Zm5.765,2.104c0.183,0.061 0.351,0.061 0.503,0c0.153,-0.061 0.275,-0.122 0.366,-0.183l0.595,-0.457c0.122,0.244 0.381,0.396 0.778,0.457c0.396,0.061 0.762,0.015 1.098,-0.137c0.335,-0.153 0.473,-0.381 0.412,-0.686c-0.061,-0.061 -0.092,-0.183 -0.092,-0.366l-0.915,-0.183c-0.549,-0.061 -0.976,-0.092 -1.281,-0.092c-0.183,0.183 -0.503,0.29 -0.961,0.32c-0.457,0.031 -0.777,0.26 -0.96,0.687l0.457,0.64Zm-1.647,-0.457c-0.183,-0.305 -0.427,-0.458 -0.732,-0.458c0,0.305 0.244,0.458 0.732,0.458Zm-5.399,2.379c0.183,-0.244 0.275,-0.671 0.275,-1.281c-0.061,0.122 -0.198,0.122 -0.412,0c-0.213,-0.122 -0.351,-0.153 -0.412,-0.092c0,0.122 -0.045,0.259 -0.137,0.412c-0.091,0.153 -0.107,0.32 -0.046,0.503c0.122,0 0.229,0.077 0.321,0.229c0.091,0.153 0.228,0.229 0.411,0.229Zm8.968,-0.732c0.122,0.122 0.305,0.137 0.549,0.046c0.244,-0.092 0.396,-0.229 0.457,-0.412c-0.122,-0.244 -0.335,-0.336 -0.64,-0.275c-0.305,0.061 -0.427,0.275 -0.366,0.641Zm-5.033,0.366c0.183,-0.061 0.366,-0.076 0.549,-0.046c0.183,0.031 0.366,0.046 0.549,0.046c0.183,0 0.305,-0.031 0.366,-0.092c-0.183,-0.244 -0.442,-0.381 -0.778,-0.411c-0.335,-0.031 -0.564,0.137 -0.686,0.503Zm8.784,0.366c0,-0.122 0.153,-0.183 0.458,-0.183c0.305,0 0.457,-0.061 0.457,-0.183c-0.244,-0.305 -0.549,-0.275 -0.915,0.091c-0.122,0.122 -0.122,0.214 0,0.275Zm-4.483,0.091c0.061,-0.244 0.015,-0.396 -0.138,-0.457c-0.152,-0.061 -0.35,-0.092 -0.594,-0.092c-0.061,0.183 -0.046,0.305 0.045,0.366l0.687,0.183Z" style="fill:#1e2b54;fill-rule:nonzero;"/><path d="M96.191,74.025c-0.244,0 -0.595,-0.092 -1.052,-0.275c-0.458,-0.183 -0.808,-0.274 -1.052,-0.274c-0.305,-0.061 -2.257,0 -5.857,0.183c-0.671,0.061 -1.647,0.046 -2.928,-0.046c-1.281,-0.091 -2.196,-0.137 -2.745,-0.137c-0.427,0.061 -1.265,0.152 -2.516,0.274c-1.25,0.122 -2.181,0.199 -2.791,0.229c-0.61,0.031 -1.403,0.061 -2.379,0.092c-0.976,0.03 -1.86,-0.016 -2.653,-0.138c-0.793,-0.122 -1.556,-0.274 -2.288,-0.457c-1.281,0.427 -4.163,0.488 -8.647,0.183c-4.483,-0.305 -7.732,-0.366 -9.745,-0.183c-0.244,0 -0.61,0.061 -1.098,0.183c-0.488,0.122 -0.884,0.198 -1.189,0.229c-0.305,0.03 -0.671,0.015 -1.098,-0.046c-0.427,-0.061 -0.824,-0.183 -1.19,-0.366c-0.854,0.183 -2.348,0.213 -4.483,0.091c-2.135,-0.122 -3.508,0 -4.118,0.366c-1.647,-0.427 -3.019,-0.427 -4.118,0c-0.061,-0.305 -0.137,-0.503 -0.228,-0.594c-0.092,-0.092 -0.244,-0.168 -0.458,-0.229c-0.213,-0.061 -0.381,-0.122 -0.503,-0.183c0.305,-1.22 0.335,-3.737 0.091,-7.549c-0.244,-3.813 -0.335,-6.329 -0.274,-7.549c0,-0.244 0.061,-0.656 0.183,-1.235c0.122,-0.58 0.183,-1.053 0.183,-1.419c0,-0.366 -0.076,-0.854 -0.229,-1.464c-0.152,-0.61 -0.229,-1.098 -0.229,-1.464c-0.061,-0.854 0.046,-2.089 0.321,-3.705c0.274,-1.617 0.411,-2.73 0.411,-3.34c0,-0.366 -0.122,-0.9 -0.366,-1.601c-0.244,-0.702 -0.366,-1.236 -0.366,-1.602c-0.061,-0.854 0,-2.303 0.183,-4.346c0.183,-2.044 0.275,-3.523 0.275,-4.438c0,-0.793 -0.076,-2.226 -0.229,-4.3c-0.152,-2.075 -0.198,-3.63 -0.137,-4.667c0,-0.244 0.076,-0.656 0.229,-1.235c0.152,-0.58 0.228,-1.022 0.228,-1.327c0.061,-0.427 0.031,-1.007 -0.091,-1.739c-0.122,-0.732 -0.183,-1.25 -0.183,-1.555c-0.061,-0.915 -0.046,-2.318 0.046,-4.209c0.091,-1.891 0.137,-3.264 0.137,-4.118c-0.244,-1.464 -0.336,-3.141 -0.275,-5.032c0.061,-1.891 0.519,-3.416 1.373,-4.575c0.488,0 1.251,0.061 2.288,0.183c1.037,0.122 1.86,0.152 2.47,0.091c0.244,0 0.656,-0.076 1.235,-0.229c0.58,-0.152 1.022,-0.228 1.327,-0.228c0.305,0 0.747,0.076 1.327,0.228c0.579,0.153 0.991,0.229 1.235,0.229c0.732,0.061 1.83,-0.015 3.294,-0.229c1.464,-0.213 2.7,-0.274 3.706,-0.183c1.007,0.092 1.784,0.504 2.333,1.236c-0.366,2.196 -0.366,5.032 0,8.509c0.122,1.22 0.061,2.867 -0.183,4.941c-0.244,2.074 -0.366,3.447 -0.366,4.118c-0.061,0.427 -0.015,1.022 0.138,1.784c0.152,0.763 0.228,1.296 0.228,1.601c0.061,1.098 0.031,2.883 -0.091,5.353c-0.122,2.471 -0.122,4.347 0,5.628c0.305,3.965 0.457,6.069 0.457,6.313c0,0.244 -0.076,0.671 -0.228,1.281c-0.153,0.61 -0.229,1.098 -0.229,1.464c0,0.671 0.061,1.617 0.183,2.837c0.122,1.22 0.168,2.318 0.137,3.294c-0.03,0.976 -0.198,1.86 -0.503,2.653c0.061,0.183 0.152,0.641 0.274,1.373c0.122,0.732 0.26,1.281 0.412,1.647c0.153,0.366 0.412,0.64 0.778,0.823c2.196,-0.122 4.605,-0.213 7.228,-0.274c2.624,-0.061 5.536,-0.107 8.739,-0.137c3.202,-0.031 5.658,-0.077 7.366,-0.138c0.793,0 1.998,0.077 3.614,0.229c1.617,0.153 2.852,0.198 3.706,0.137c0.366,0 0.915,-0.061 1.647,-0.183c0.732,-0.122 1.25,-0.183 1.555,-0.183c0.366,0 0.885,0.122 1.556,0.366c0.671,0.244 1.159,0.366 1.464,0.366c0.305,0 0.763,-0.106 1.373,-0.32c0.61,-0.213 1.037,-0.32 1.281,-0.32c0.915,-0.122 2.44,-0.076 4.575,0.137c2.135,0.214 3.599,0.168 4.392,-0.137c0.183,0.122 0.625,0.29 1.326,0.503c0.702,0.214 1.175,0.442 1.419,0.687c0.366,1.891 0.503,4.498 0.412,7.823c-0.092,3.324 -0.016,6.024 0.228,8.098c-0.122,0.366 -0.32,0.671 -0.594,0.915c-0.275,0.244 -0.549,0.412 -0.824,0.503l-2.15,0.778c-0.671,-0.061 -1.8,-0.046 -3.386,0.046c-1.586,0.091 -2.684,0.076 -3.294,-0.046Zm-53.345,-68.626c0.61,0.061 1.052,-0.031 1.326,-0.275c0.275,-0.244 0.382,-0.64 0.321,-1.189c-0.793,-0.549 -1.434,-0.519 -1.922,0.091c-0.366,0.427 -0.274,0.885 0.275,1.373Zm-2.471,-0.183c0.183,-0.183 0.122,-0.61 -0.183,-1.281c-0.122,0 -0.32,-0.016 -0.595,-0.046c-0.274,-0.031 -0.503,-0.031 -0.686,0c-0.183,0.03 -0.274,0.137 -0.274,0.32c0.061,0 0.274,0.168 0.64,0.503c0.366,0.336 0.732,0.504 1.098,0.504Zm6.314,-0.366l0,-0.366l0.091,-0.092l-0.732,0c0,0.183 0.214,0.336 0.641,0.458Zm-7.503,2.47c0.549,-0.122 0.793,-0.427 0.732,-0.915c-0.122,-0.122 -0.458,-0.122 -1.007,0c0,0.122 0.061,0.259 0.183,0.412c0.122,0.152 0.153,0.32 0.092,0.503Zm9.516,0.458l0,-0.732c-0.305,-0.122 -0.565,-0.153 -0.778,-0.092c-0.214,0.061 -0.29,0.275 -0.229,0.641c0.122,0.122 0.458,0.183 1.007,0.183Zm-4.209,0.732c0.061,-0.305 -0.061,-0.519 -0.366,-0.641c-0.305,-0.122 -0.519,-0.122 -0.641,0c-0.061,0.305 0.031,0.534 0.275,0.686c0.244,0.153 0.488,0.138 0.732,-0.045Zm-0.458,0.366l-0.183,0l-0.091,-0.092c-0.122,0.061 -0.153,0.122 -0.092,0.183c0.122,0.061 0.244,0.031 0.366,-0.091Zm-6.313,0.915c0,0.244 0.213,0.472 0.64,0.686c0.427,0.213 0.824,0.274 1.19,0.183c0.366,-0.092 0.549,-0.381 0.549,-0.869c-0.976,-0.366 -1.769,-0.366 -2.379,0Zm5.398,0.915c0.122,-0.488 -0.122,-0.793 -0.732,-0.915c0.061,0.183 0.031,0.305 -0.091,0.366c-0.122,0.122 -0.183,0.244 -0.183,0.366c0.488,0.244 0.823,0.305 1.006,0.183Zm1.19,1.006c0.305,0.183 0.594,0.198 0.869,0.046c0.274,-0.153 0.381,-0.412 0.32,-0.778c-0.305,-0.183 -0.595,-0.198 -0.869,-0.046c-0.275,0.153 -0.381,0.412 -0.32,0.778Zm5.398,-0.457c0,-0.122 0.122,-0.153 0.366,-0.092c0.183,0 0.275,-0.061 0.275,-0.183c-0.427,-0.183 -0.671,-0.183 -0.732,0l0.091,0.275Zm-11.986,0.732c0.244,-0.366 0.091,-0.671 -0.458,-0.915c-0.122,0.183 -0.137,0.381 -0.046,0.594c0.092,0.214 0.26,0.321 0.504,0.321Zm1.006,-0.092c0.061,0 0.153,-0.03 0.275,-0.091c0.122,-0.061 0.244,-0.092 0.366,-0.092c0.061,-0.244 -0.016,-0.396 -0.229,-0.457c-0.214,-0.061 -0.381,0 -0.503,0.183l0.091,0.457Zm8.51,-0.183c0.366,0 0.579,-0.091 0.64,-0.274c-0.366,-0.061 -0.579,0.03 -0.64,0.274Zm-4.941,2.288c0.488,0.122 0.671,-0.061 0.549,-0.549c-0.122,-0.122 -0.26,-0.168 -0.412,-0.138c-0.153,0.031 -0.244,0.122 -0.275,0.275c-0.03,0.152 0.016,0.29 0.138,0.412Zm-3.386,2.104c0.061,-0.183 0.214,-0.366 0.458,-0.549c0.244,-0.183 0.396,-0.396 0.457,-0.64c-0.244,-0.244 -0.854,-0.549 -1.83,-0.915c0.244,0.793 0.549,1.494 0.915,2.104Zm11.438,0.275c0,-0.488 -0.244,-0.671 -0.732,-0.549c0,0.122 -0.061,0.244 -0.183,0.366l0.64,0.274c0.061,0 0.153,-0.03 0.275,-0.091Zm-2.471,0c0.122,0.061 0.214,0.03 0.275,-0.092c-0.061,-0.183 -0.153,-0.305 -0.275,-0.366l0,0.458Zm-9.699,3.202l1.235,0.183c0.153,0 0.336,-0.015 0.549,-0.045c0.214,-0.031 0.382,-0.107 0.504,-0.229c0.122,-0.122 0.183,-0.275 0.183,-0.458c-0.366,-0.854 -1.098,-1.311 -2.196,-1.372c0,0.244 -0.061,0.549 -0.183,0.915c-0.122,0.366 -0.153,0.701 -0.092,1.006Zm8.327,0.732c0.427,0 0.64,-0.244 0.64,-0.732c-0.122,-0.183 -0.274,-0.198 -0.457,-0.045c-0.183,0.152 -0.336,0.228 -0.458,0.228c-0.061,0.122 -0.03,0.229 0.092,0.321c0.122,0.091 0.183,0.167 0.183,0.228Zm-5.673,-0.091c0,-0.122 0.091,-0.183 0.274,-0.183c0.061,-0.183 0.046,-0.336 -0.046,-0.458c-0.091,-0.122 -0.228,-0.152 -0.411,-0.091l0,0.274c-0.061,0.305 0,0.458 0.183,0.458Zm5.673,2.013c0.122,0 0.228,-0.015 0.32,-0.046c0.091,-0.03 0.198,-0.076 0.32,-0.137c0.122,-0.061 0.214,-0.092 0.275,-0.092c0,-0.427 -0.183,-0.61 -0.549,-0.549c-0.366,0.061 -0.488,0.336 -0.366,0.824Zm-3.66,1.281c0.061,-0.427 -0.016,-0.717 -0.229,-0.869c-0.214,-0.153 -0.534,-0.229 -0.961,-0.229c-0.122,0.366 -0.076,0.656 0.137,0.869c0.214,0.214 0.565,0.29 1.053,0.229Zm2.47,0c0.061,-0.366 -0.015,-0.61 -0.229,-0.732c-0.213,-0.122 -0.564,-0.214 -1.052,-0.275c-0.183,0.366 -0.107,0.687 0.229,0.961c0.335,0.275 0.686,0.29 1.052,0.046Zm2.379,0.915c0.061,-0.061 0.32,-0.214 0.778,-0.458c0.458,-0.244 0.747,-0.518 0.869,-0.823c-0.366,-0.427 -0.793,-0.427 -1.281,0c-0.488,0.427 -0.61,0.854 -0.366,1.281Zm-11.529,-0.275c0.366,0.366 0.732,0.305 1.098,-0.183c0,-0.061 -0.015,-0.183 -0.046,-0.366c-0.03,-0.183 -0.061,-0.32 -0.091,-0.411c-0.031,-0.092 -0.092,-0.183 -0.183,-0.275c-0.092,-0.091 -0.229,-0.137 -0.412,-0.137c-0.305,0.61 -0.427,1.067 -0.366,1.372Zm3.477,2.013c0.366,0 0.61,-0.244 0.732,-0.732c-0.183,-0.183 -0.396,-0.152 -0.64,0.092c-0.244,0.244 -0.275,0.457 -0.092,0.64Zm8.51,2.105c0.366,-0.122 0.549,-0.335 0.549,-0.641c-0.61,-0.183 -0.946,-0.183 -1.007,0c0.305,0.306 0.458,0.519 0.458,0.641Zm-4.667,-0.274c-0.061,0.122 -0.061,0.213 0,0.274c0.122,0.061 0.244,0 0.366,-0.183c0.122,-0.122 0.122,-0.213 0,-0.275c-0.061,-0.061 -0.137,-0.061 -0.229,0c-0.091,0.062 -0.137,0.123 -0.137,0.184Zm-0.732,1.098c0,-0.488 -0.061,-0.732 -0.183,-0.732c-0.488,0.488 -0.427,0.732 0.183,0.732Zm4.026,0.183c0.122,-0.549 -0.061,-0.824 -0.549,-0.824c-0.427,0.061 -0.671,0.275 -0.732,0.641c0.122,0.122 0.336,0.213 0.641,0.274c0.305,0.061 0.518,0.031 0.64,-0.091Zm-1.464,1.006c0.305,0.122 0.458,0 0.458,-0.366c0,-0.366 -0.153,-0.488 -0.458,-0.366l0,0.732Zm-5.124,2.196c0.305,-0.488 0.244,-0.9 -0.183,-1.235c-0.427,-0.336 -0.793,-0.32 -1.098,0.046c-0.061,0.427 0.031,0.716 0.275,0.869c0.244,0.152 0.579,0.259 1.006,0.32Zm2.379,-0.183c0,-0.122 -0.061,-0.213 -0.183,-0.274c-0.122,-0.061 -0.152,-0.214 -0.091,-0.458l-0.641,0c0,0.183 0.046,0.32 0.137,0.412c0.092,0.091 0.229,0.168 0.412,0.229c0.183,0.061 0.305,0.091 0.366,0.091Zm-5.581,1.373c0.305,-0.061 0.457,-0.153 0.457,-0.275l-0.274,0c0,0.061 -0.061,0.153 -0.183,0.275Zm9.973,0l0.275,0l0,-0.275l-0.275,0l0,0.275Zm-3.934,0.457c0,-0.061 -0.031,-0.152 -0.092,-0.274c0,-0.183 -0.03,-0.305 -0.091,-0.366c0,0.122 -0.092,0.183 -0.275,0.183l0,0.274l0.458,0.183Zm6.405,0l0.274,0l0.183,-0.366c-0.061,0 -0.122,-0.03 -0.183,-0.091c-0.061,-0.061 -0.152,-0.061 -0.274,0l0,0.457Zm-3.935,0.732c0,-0.366 -0.244,-0.488 -0.732,-0.366c-0.061,0.183 -0.046,0.29 0.046,0.32c0.091,0.031 0.198,0.031 0.32,0c0.122,-0.03 0.244,-0.015 0.366,0.046Zm-3.202,0c0.244,0.122 0.427,0.061 0.549,-0.183c-0.244,-0.122 -0.427,-0.061 -0.549,0.183Zm-1.922,0.549c0.122,0.122 0.305,0.153 0.549,0.092c0.244,-0.061 0.397,-0.183 0.458,-0.366c-0.122,-0.244 -0.321,-0.336 -0.595,-0.275c-0.275,0.061 -0.412,0.244 -0.412,0.549Zm4.85,0.915c0.183,0 0.32,-0.015 0.411,-0.046c0.092,-0.03 0.199,-0.076 0.321,-0.137c0.122,-0.061 0.213,-0.091 0.274,-0.091c0.061,-0.61 -0.091,-0.946 -0.457,-1.007c-0.488,-0.061 -0.763,0.122 -0.824,0.549c-0.061,0.244 0.031,0.488 0.275,0.732Zm-0.458,0.366c0.305,-0.549 0.122,-0.884 -0.549,-1.006c0,0.061 -0.061,0.167 -0.183,0.32c-0.122,0.152 -0.183,0.29 -0.183,0.412c0.122,0 0.259,0.061 0.412,0.183c0.152,0.122 0.32,0.152 0.503,0.091Zm2.745,1.098c0.366,-0.122 0.58,-0.244 0.641,-0.366c-0.122,0 -0.183,-0.152 -0.183,-0.457c0.061,-0.183 0.03,-0.275 -0.092,-0.275c-0.671,0.305 -0.793,0.671 -0.366,1.098Zm-6.13,2.562c0.244,0.122 0.503,0.122 0.777,0c0.275,-0.122 0.412,-0.366 0.412,-0.732c-0.244,-0.427 -0.64,-0.61 -1.189,-0.549c-0.244,0.244 -0.244,0.671 0,1.281Zm4.575,2.196c0.061,-0.305 0,-0.518 -0.183,-0.64c-0.183,-0.122 -0.366,-0.092 -0.549,0.091c0,0.549 0.244,0.732 0.732,0.549Zm2.653,-0.091c0.061,-0.061 0.168,-0.092 0.321,-0.092c0.152,0 0.274,-0.03 0.366,-0.091c0.091,-0.061 0.137,-0.153 0.137,-0.275c-0.549,0.122 -0.824,0.275 -0.824,0.458Zm-6.954,0.457c0.427,-0.061 0.641,-0.274 0.641,-0.64c-0.244,-0.122 -0.443,-0.107 -0.595,0.046c-0.153,0.152 -0.168,0.35 -0.046,0.594Zm-0.823,-0.183l0.549,0c0.061,-0.366 -0.122,-0.549 -0.549,-0.549l0,0.549Zm8.601,3.111c0.061,-0.244 0.03,-0.427 -0.092,-0.549c-0.122,-0.122 -0.259,-0.183 -0.411,-0.183c-0.153,0 -0.336,-0.015 -0.55,-0.045c-0.213,-0.031 -0.381,-0.077 -0.503,-0.138c0,-0.122 0.076,-0.32 0.229,-0.594c0.152,-0.275 0.198,-0.565 0.137,-0.87c-0.366,-0.061 -0.61,0 -0.732,0.183c-0.122,0.183 -0.152,0.488 -0.091,0.915c0.061,0.427 0.091,0.702 0.091,0.824c0.305,-0.061 0.641,0.061 1.007,0.366c0.366,0.305 0.671,0.335 0.915,0.091Zm-1.19,3.294l0.366,0l0,-0.274l-0.366,0l0,0.274Zm0.732,2.196c0.305,0 0.61,-0.091 0.915,-0.274l0,-1.007c-0.305,-0.183 -0.594,-0.183 -0.869,0c-0.275,0.183 -0.381,0.488 -0.32,0.915c0.122,0 0.183,0.061 0.183,0.183l0.091,0.183Zm-7.32,-0.823c-0.061,0.244 0.015,0.381 0.229,0.412c0.213,0.03 0.351,-0.046 0.412,-0.229l0,-0.183l-0.641,0Zm-2.47,2.928c0.061,0.793 0.518,1.128 1.372,1.006c0.854,-0.183 1.281,-0.762 1.281,-1.738c-0.427,-0.671 -0.976,-0.869 -1.647,-0.595c-0.671,0.275 -1.006,0.717 -1.006,1.327Zm9.699,2.196c0.244,0 0.518,-0.122 0.823,-0.366c0.305,-0.244 0.61,-0.275 0.915,-0.092c0.061,-0.122 0.031,-0.259 -0.091,-0.411c-0.122,-0.153 -0.153,-0.321 -0.092,-0.504c-0.122,0 -0.396,0.122 -0.823,0.366c-0.061,-0.549 -0.427,-0.762 -1.098,-0.64c-0.427,0.183 -0.61,0.488 -0.549,0.915c0.427,0.427 0.732,0.671 0.915,0.732Zm-5.124,1.739c0.122,0.061 0.213,0.03 0.274,-0.092c-0.061,-0.183 -0.152,-0.305 -0.274,-0.366l0,0.458Zm56.456,0.915c0.061,0 0.153,-0.031 0.275,-0.092l0.183,-0.091c-0.244,0 -0.397,0.061 -0.458,0.183Zm-6.862,0.091c-0.061,0.122 -0.061,0.183 0,0.183c0.122,0.122 0.274,0.092 0.457,-0.091c0.061,-0.061 0.061,-0.122 0,-0.183l-0.457,0.091Zm-17.569,3.111c0.366,-0.305 0.519,-0.701 0.458,-1.189c-0.122,-0.122 -0.336,-0.244 -0.641,-0.366c-0.305,-0.122 -0.488,-0.183 -0.549,-0.183c0.183,-0.183 0.336,-0.58 0.458,-1.19l-0.275,-0.274c-0.305,0 -0.656,0.106 -1.052,0.32c-0.397,0.213 -0.686,0.351 -0.869,0.412c0,0.244 0.076,0.427 0.228,0.549c0.153,0.122 0.366,0.244 0.641,0.366c0.274,0.122 0.473,0.213 0.595,0.274c-0.183,0.305 -0.168,0.61 0.045,0.915c0.214,0.305 0.534,0.427 0.961,0.366Zm-34.679,-2.653c-0.061,0.244 0,0.366 0.183,0.366c0.305,-0.061 0.488,-0.244 0.549,-0.549l-0.732,0.183Zm40.81,0.915l0.366,0l0,-0.366l-0.366,0l0,0.366Zm-38.065,0.732c0.488,0 0.702,-0.214 0.641,-0.641c-0.244,-0.244 -0.473,-0.259 -0.687,-0.046c-0.213,0.214 -0.198,0.443 0.046,0.687Zm17.751,-0.183l0.275,0l0,-0.275l-0.275,0l0,0.275Zm15.647,0.549c0.183,0 0.321,0.015 0.412,0.045c0.092,0.031 0.168,0 0.229,-0.091c0.061,-0.092 0.091,-0.198 0.091,-0.32c-0.122,-0.183 -0.305,-0.275 -0.549,-0.275c-0.122,0.061 -0.183,0.275 -0.183,0.641Zm4.575,-0.366c-0.061,0.122 -0.061,0.183 0,0.183c0.061,0.183 0.214,0.152 0.458,-0.092l0,-0.274c-0.305,-0.122 -0.458,-0.061 -0.458,0.183Zm9.974,1.006c0.366,0 0.549,-0.335 0.549,-1.006c-0.183,-0.183 -0.412,-0.229 -0.686,-0.138c-0.275,0.092 -0.381,0.26 -0.32,0.504c0.183,0 0.335,0.213 0.457,0.64Zm-14.64,-0.274l0,-0.641c-0.244,-0.061 -0.397,0 -0.458,0.183c0.061,0.244 0.214,0.397 0.458,0.458Zm20.862,0.366c0,-0.061 0.076,-0.138 0.229,-0.229c0.152,-0.092 0.198,-0.198 0.137,-0.32c-0.061,0 -0.183,-0.061 -0.366,-0.183c-0.183,-0.122 -0.366,-0.153 -0.549,-0.092c-0.061,0.122 -0.03,0.29 0.092,0.503c0.122,0.214 0.274,0.321 0.457,0.321Zm-54.443,-0.275c0.061,-0.366 -0.107,-0.549 -0.504,-0.549c-0.396,0 -0.655,0.092 -0.777,0.275c0.183,0.305 0.61,0.396 1.281,0.274Zm28.731,0.732c0.183,0.305 0.458,0.275 0.824,-0.091c-0.061,-0.122 -0.214,-0.183 -0.458,-0.183c-0.244,0 -0.366,0.091 -0.366,0.274Zm20.039,0.458c0.122,-0.427 0.061,-0.671 -0.183,-0.732c-0.488,0.488 -0.427,0.732 0.183,0.732Zm-47.581,-0.183l0.275,0l0,-0.275l-0.275,0l0,0.275Zm32.392,0.183c0,-0.305 -0.244,-0.458 -0.732,-0.458c0.061,0.305 0.305,0.458 0.732,0.458Zm25.254,-0.183l0.366,0c-0.061,-0.061 -0.183,-0.061 -0.366,0Zm-45.019,0.183c0,-0.061 -0.045,-0.107 -0.137,-0.138c-0.091,-0.03 -0.198,-0.03 -0.32,0c-0.122,0.031 -0.214,0.016 -0.275,-0.045c-0.183,0.305 -0.091,0.488 0.275,0.549c0.244,-0.061 0.396,-0.183 0.457,-0.366Zm22.51,0.549c0.061,-0.244 -0.092,-0.427 -0.458,-0.549c0,0.122 0.061,0.244 0.183,0.366l0.275,0.183Zm10.522,1.098c0.428,-0.061 0.641,-0.305 0.641,-0.732c-0.366,-0.122 -0.58,-0.183 -0.641,-0.183c-0.122,0.122 -0.183,0.274 -0.183,0.457c0,0.183 0.061,0.336 0.183,0.458Zm6.863,-0.366c0,-0.244 -0.091,-0.366 -0.274,-0.366c-0.122,0.122 -0.153,0.228 -0.092,0.32c0.061,0.091 0.183,0.107 0.366,0.046Zm-7.412,2.104c0.183,-0.366 0.122,-0.747 -0.183,-1.144c-0.305,-0.396 -0.457,-0.716 -0.457,-0.96c-1.22,-0.427 -2.227,-0.183 -3.02,0.732c0.549,0.061 1.266,0.289 2.151,0.686c0.884,0.396 1.387,0.625 1.509,0.686Zm-42.365,-0.457c0.305,0.061 0.458,-0.031 0.458,-0.275c0,-0.244 -0.153,-0.335 -0.458,-0.274l0,0.549Zm-1.555,0.274c0.427,0 0.671,-0.152 0.732,-0.457c-0.122,0 -0.183,-0.092 -0.183,-0.275c-0.244,0 -0.488,0.061 -0.732,0.183l0.183,0.549Zm46.208,0c0.061,-0.122 0.015,-0.229 -0.137,-0.32c-0.153,-0.092 -0.198,-0.229 -0.137,-0.412l-0.549,0c-0.061,0.366 0.213,0.61 0.823,0.732Zm3.386,0.183l0,-0.091c0.061,-0.122 0.122,-0.183 0.183,-0.183c0,-0.122 -0.153,-0.336 -0.458,-0.641c-0.122,0.122 -0.198,0.259 -0.229,0.412c-0.03,0.152 -0.015,0.29 0.046,0.412c0.061,0.122 0.214,0.152 0.458,0.091Zm-37.882,-0.274c0.061,0.061 0.152,0.106 0.274,0.137c0.122,0.03 0.229,0.015 0.321,-0.046c0.091,-0.061 0.137,-0.152 0.137,-0.274c-0.061,-0.061 -0.153,-0.107 -0.275,-0.138c-0.122,-0.03 -0.228,-0.015 -0.32,0.046c-0.091,0.061 -0.137,0.153 -0.137,0.275Zm-19.947,0.274l0.274,0l0,-0.457l-0.366,0c0,0.244 0.031,0.396 0.092,0.457Zm40.26,0.549l0,-0.091c0.061,-0.122 0.122,-0.183 0.183,-0.183c0,-0.183 -0.244,-0.427 -0.732,-0.732c0,0.122 -0.045,0.259 -0.137,0.411c-0.091,0.153 -0.137,0.26 -0.137,0.321l0.823,0.274Zm2.928,-0.457c0,-0.244 -0.091,-0.366 -0.274,-0.366c0,0.305 0.091,0.427 0.274,0.366Zm-44.195,0.457c0.183,-0.122 0.153,-0.305 -0.091,-0.549c-0.061,-0.061 -0.122,-0.03 -0.183,0.092l0.274,0.457Zm27.542,0.458c0,-0.122 0.031,-0.244 0.092,-0.366c0.061,-0.122 0.061,-0.244 0,-0.366c-0.061,-0.061 -0.168,-0.107 -0.321,-0.138c-0.152,-0.03 -0.305,-0.03 -0.457,0c-0.153,0.031 -0.32,0.016 -0.503,-0.045c0.244,0.671 0.64,0.976 1.189,0.915Zm5.856,0.183c0,-0.244 -0.091,-0.397 -0.274,-0.458c0,0.183 0.091,0.336 0.274,0.458Zm28.549,0.732l0.549,-0.732c-0.122,0 -0.26,-0.077 -0.412,-0.229c-0.153,-0.153 -0.29,-0.229 -0.412,-0.229c-0.488,0.488 -0.396,0.885 0.275,1.19Zm-12.719,0.457c1.037,0 1.403,-0.518 1.098,-1.555c-0.488,-0.061 -0.854,0.045 -1.098,0.32c-0.244,0.274 -0.244,0.686 0,1.235Zm-3.111,-0.915c0,-0.061 -0.031,-0.152 -0.092,-0.274c-0.061,-0.122 -0.091,-0.244 -0.091,-0.366l-0.549,0c-0.061,0.244 -0.015,0.427 0.137,0.549c0.153,0.122 0.351,0.152 0.595,0.091Zm1.738,0.275c0.122,0 0.244,-0.031 0.366,-0.092c0.122,-0.061 0.214,-0.091 0.275,-0.091c0,-0.366 -0.107,-0.565 -0.32,-0.595c-0.214,-0.031 -0.412,0.046 -0.595,0.229c-0.061,0.122 -0.031,0.228 0.091,0.32c0.122,0.091 0.183,0.168 0.183,0.229Zm14.549,1.921c0.061,-0.183 0.29,-0.442 0.686,-0.778c0.397,-0.335 0.534,-0.625 0.412,-0.869c-0.244,-0.183 -0.457,-0.259 -0.64,-0.229l-1.556,0.687c0,0.366 0.366,0.762 1.098,1.189Zm-6.588,-1.464c-0.305,-0.183 -0.518,-0.244 -0.64,-0.183c-0.061,0.305 0.061,0.458 0.366,0.458l0.274,-0.275Zm-2.928,0.549c0.122,-0.061 0.168,-0.198 0.137,-0.412c-0.03,-0.213 -0.137,-0.32 -0.32,-0.32c-0.122,0.061 -0.168,0.198 -0.137,0.412c0.03,0.213 0.137,0.32 0.32,0.32Zm-50.875,0l0,-0.274c-0.061,-0.122 -0.152,-0.153 -0.274,-0.092c-0.183,0.183 -0.183,0.305 0,0.366l0.274,0Zm39.895,0.183c0.305,0 0.396,-0.183 0.274,-0.549c-0.305,0 -0.427,0.122 -0.366,0.366c0.061,0.061 0.092,0.122 0.092,0.183Zm11.346,0c0.061,0.122 0.229,0.153 0.503,0.092c0.275,-0.061 0.473,-0.092 0.595,-0.092c0,-0.366 -0.183,-0.549 -0.549,-0.549c-0.366,0 -0.549,0.183 -0.549,0.549Zm-8.144,0l0.275,0l0,-0.274l-0.275,0l0,0.274Zm2.654,0.824c0.549,0.061 0.884,-0.214 1.006,-0.824c-0.244,-0.122 -0.488,-0.107 -0.732,0.046c-0.244,0.152 -0.335,0.412 -0.274,0.778Zm-11.621,0c0.366,0.122 0.61,0.122 0.732,0c0.061,-0.244 -0.091,-0.427 -0.457,-0.549c0,0.061 -0.061,0.137 -0.183,0.228c-0.122,0.092 -0.153,0.199 -0.092,0.321Zm-28.548,0.366c0.061,-0.305 0,-0.458 -0.183,-0.458c-0.183,0 -0.366,0.031 -0.549,0.092c0,0.183 0.106,0.305 0.32,0.366c0.213,0.061 0.351,0.061 0.412,0Zm42.456,-0.183c0.305,-0.061 0.458,-0.153 0.458,-0.275l-0.275,0c0,0.061 -0.03,0.092 -0.091,0.092l-0.092,0.183Zm-45.659,0.183c-0.061,0.183 0.031,0.274 0.275,0.274c0.244,-0.061 0.396,-0.213 0.457,-0.457c-0.305,-0.061 -0.549,0 -0.732,0.183Zm38.065,0.823c0.244,0.061 0.503,0.061 0.778,0c0.274,-0.061 0.503,-0.091 0.686,-0.091c0.061,-0.488 -0.198,-0.702 -0.778,-0.641c-0.579,0.061 -0.808,0.305 -0.686,0.732Z" style="fill:#1e2b54;fill-rule:nonzero;"/></g></svg>