<?xml version="1.0" encoding="UTF-8" standalone="no"?><!DOCTYPE svg PUBLIC "-//W3C//DTD SVG 1.1//EN" "http://www.w3.org/Graphics/SVG/1.1/DTD/svg11.dtd"><svg width="100%" height="100%" viewBox="0 0 482 600" version="1.1" xmlns="http://www.w3.org/2000/svg" xmlns:xlink="http://www.w3.org/1999/xlink" xml:space="preserve" xmlns:serif="http://www.serif.com/" style="fill-rule:evenodd;clip-rule:evenodd;"><g><clipPath id="_clip1"><rect x="0" y="0" width="481.229" height="599.678"/></clipPath><g clip-path="url(#_clip1)"><g id="svg_1"><path id="MI-" d="M50.122,403.877l3.424,-0.172l141.703,-5.285l2.517,5.034l3.118,3.82l2.405,3.05l-1.738,4.965l0.507,9.303l5.033,16.109l15.359,17.111l12.082,7.555l0.246,9.314l2.263,3.77l15.094,1.756l4.292,2.271l-1.01,6.305l-4.535,13.338l-1.76,7.047l3.785,9.058l15.344,12.327l10.567,1.76l4.031,10.075l4.281,7.547l-1.764,5.545l2.829,10.478l4.388,4.904l2.93,-2.167l3.731,5.601l-2.237,4.264l-0.114,6.716l-5.716,3.274l-4.619,5.626l-1.434,12.895l-3.781,12.096l-8.576,1.511l-11.843,-1.007l1.261,-4.046l6.797,-5.291l1.507,-7.282l-4.777,-7.544l-25.662,0.507l-45.808,1.764l-51.095,1.51l-49.394,1.909l-1.006,-11.854l-0.504,-10.319l-0.691,-79.425l-3.021,-25.672l-5.537,-4.027l-5.537,-6.544l-4.531,-7.551l1.007,-5.034l4.027,-3.524l0,-6.544l-3.295,-2.013l-4.759,-0.504l-6.796,-6.04l-6.795,-9.061l-5.538,-8.558l0.504,-5.034l-2.673,-5.344l1.514,-0.273Zm313.927,-72.514l7.067,-6.691l0.712,-6.051l5.339,-11.39l2.136,-13.17l1.78,-10.323l-3.204,-10.678l-6.407,-14.238l-7.831,-13.17l0.712,-6.051l0.712,-1.78l1.78,-5.339l-1.068,-2.492l-1.424,-10.322l3.56,-8.899l2.491,-13.526l-1.779,-5.339l0,-2.492l4.983,-1.067l1.424,-5.696l-1.424,-1.779l0.356,-2.136l3.915,-4.271l6.051,-2.492l2.136,-9.255l4.271,-1.779l1.78,1.779l-1.424,5.34l-2.847,5.339l0,9.254l1.423,0.356l7.831,-4.627l-0.712,-12.102l-0.711,-3.56l0.711,-4.627l3.204,-3.915l5.695,-0.712l5.695,-1.78l-1.068,-1.78l-4.627,-1.068l-2.136,-0.711l-0.712,-7.831l6.408,-4.984l6.407,-3.915l6.762,4.983l2.136,1.068l1.424,-1.424l6.051,0l12.102,7.475l9.967,3.204l5.695,0l2.848,5.695l5.339,4.983l-0.356,3.56l-3.56,-0.712l-1.779,1.779l1.779,4.628l2.848,1.78l3.559,4.983l0.712,22.068l-5.339,3.56l-1.424,5.695l-1.779,7.475l-7.475,2.848c0,0 -0.712,9.61 -1.068,11.034c-0.356,1.424 5.339,4.627 5.339,4.627l3.204,1.424l2.491,-1.424l6.051,-8.187l4.272,-11.034l8.542,-3.915l3.56,-2.492l5.695,3.915l5.339,7.119l4.983,19.933l7.119,18.154l0.712,21.001l-4.271,2.135l-1.78,-0.356l-0.356,-1.423l-2.313,-1.335l-3.382,6.674l-0.489,7.831l-2.402,0.755l-3.516,3.516l0.489,11.123l-4.404,3.827l-4.628,8.186l-0.34,3.065l-22.418,3.559l-24.158,4.709l0.009,0.159l15.087,-2.67l22.674,-3.31l8.486,-1.014l0.304,-1.294l0.016,-0.139l0.007,-0.001l10.773,-1.549l5.242,2.975l5.696,3.203l11.39,-1.424l7.475,6.763l4.627,-0.356l12.102,-5.695l6.407,-1.068l7.119,-1.779l8.899,-8.543l7.475,-8.187l8.542,-4.983l13.417,-8.925l6.407,42.631l5.04,19.921l-3.973,3.853l-0.773,2.62l2.102,6.374l0.389,11.684l-1.068,11.035l-0.705,11.131l-6.102,8.981l-6.763,7.475l-4.984,3.559l-4.627,-1.068l-2.312,3.398l-4.74,7.281l-1.649,2.361l-0.146,5.096l2.458,4.19l-0.966,3.216l-3.785,2.284l-1.185,-3.736l-2.91,-2.527l-2.86,1.324l-2.255,9.047l-0.218,10.553l-3.491,3.203l-0.407,6.081l-2.935,1.084l-4.805,0.178l-7.653,-5.161l-3.916,-2.136l-1.423,-6.051l-4.559,1.499l-5.165,2.848l-3.802,4.695l-11.937,-1.062l-5.514,-0.818l-5.589,2.953l-3.878,0.144l-4.165,-4.665l-11.315,0.038l-4.559,-9.611l-7.406,-3.309l-5.339,1.779l-9.077,0.284l-1.246,-10.637l-5.695,-51.612l-3.498,-27.032l-0.36,-3.113l-0.781,-8.291l-2.124,-24.033l0.517,-0.101l-0.203,-3.51l-16.025,2.173l-42.063,4.445l-3.316,0.341l-11.213,0.357l-0.166,0.095l-0.108,0.102l9.707,-0.357l5.096,-0.538l45.093,-4.642l12.277,-1.174l2.528,26.842l0.723,8.18l0.418,3.224l9.001,78.005l1.318,12.708l-0.818,4.983l2.704,3.953l0.212,3.023l-5.552,3.521l-7.793,3.416l-7.05,1.212l-1.318,10.716l-10.073,7.293l-6.157,8.83l0.712,5.234l-1.28,3.378l-7.324,0l-3.491,-3.56l-5.49,2.779l-5.908,3.31l0.356,6.725l-2.628,0.568l-1.03,-2.241l-4.771,-3.31l-7.157,2.954l-3.416,6.619l-3.165,-1.78l-3.204,-3.522l-9.83,1.068l-12.314,2.136l-6.407,3.416l0,0l0.144,-6.294l1.067,-9.967l4.984,-6.407l3.915,-8.543l5.695,-9.254l-1.067,-12.815l-3.916,-6.051l-0.712,-7.119l1.78,-12.102l-1.068,-15.306l-2.848,-35.238l-2.847,-33.815l-2.137,-25.806l6.762,1.959l3.204,2.136l2.491,-0.712l4.628,-4.272l6.064,-3.465Zm-159.487,-71.328l0.099,0.803l1.51,7.299l0.008,0.005l0.003,0.015l1.852,1.284l3.111,2.178l0.555,3.075l-4.523,7.537l0.369,5.167l0.11,1.85l0.199,0.301l5.363,8.287l3.707,1.685l1.832,0.938l6.737,1.101l0.203,0.209l1.29,1.631l0.582,6.134l4.896,1.271l2.101,2.698l1.1,4.085l8.352,7.396l1.51,5.265l-1.485,7.54l-3.484,7.117l-1.76,6.036l-4.784,3.528l-3.777,1.26l-12.284,4.096l-3.064,8.474l1.604,3.021l4.053,3.704l-0.623,8.887l-3.882,3.386l-1.699,3.618l0.28,6.113l-4.153,1.007l-3.579,2.433l-0.614,2.978l0.614,4.657l-3.415,2.457l-0.187,-0.237l0.025,-0.073l0,0l-2.43,-2.977l-2.848,-3.612l-2.78,-5.394l-144.738,5.537l-0.396,0.072l-1.61,0.08l0.096,0.193l-0.111,0.02l-4.519,-9.944l-0.504,-14.598l-3.523,-9.061l-1.511,-11.578l-5.033,-8.054l-2.014,-10.571l-6.041,-16.612l-2.516,-11.829l-3.021,-4.782l-3.523,-6.041l4.302,-10.665l3.02,-12.585l-6.04,-4.53l-1.007,-6.041l2.013,-5.537l3.776,0l181.989,-2.795l0.217,1.088Zm-1.535,-12.469l1.178,11.304l-178.813,2.52l-0.744,-78.554l-1.007,-6.544l-9.061,-7.551l-2.517,-4.027l0,-3.523l4.531,-3.524l3.02,-3.02l0.504,-7.048l0,0l-1.007,-18.625l-4.027,-16.108l-4.027,-29.7l-1.007,-21.646l-4.027,-7.55l-3.524,-11.075l0,-22.652l1.51,-8.558l-4.009,-12.003l66.346,0.077l0.712,-18.153l1.424,-0.356l4.983,1.068l4.271,1.78l1.78,12.102l3.204,13.526l3.559,3.559l10.679,0l0.711,3.204l13.882,0.712l0,4.627l10.679,0l0.712,-2.848l2.491,-2.491l4.983,-1.424l2.848,2.136l6.407,0l8.543,5.695l11.746,5.339l5.339,1.068l1.068,-2.136l3.204,-1.068l1.067,6.407l5.696,2.848l1.068,-1.068l2.847,0.356l0,4.627l5.695,2.136l6.763,0l3.56,-1.78l7.119,-7.119l5.695,-1.067l1.779,3.915l1.068,2.847l2.136,0l2.136,-1.779l19.577,-0.712l3.915,6.763l1.424,0l1.571,-2.388l9.776,-0.816l-1.348,5.019l-8.672,4.045l-20.357,8.942l-10.514,4.419l-6.763,5.695l-5.339,7.831l-4.983,8.543l-3.916,1.779l-9.966,11.035l-2.848,0.356l-9.529,6.07l-0.657,0.856l2.131,1.906l6.407,1.068l6.407,-1.424l16.373,-7.119l6.407,-4.271l4.628,-1.78l4.271,3.203l-2.491,2.492l-4.272,6.763l-1.424,4.271l2.136,1.424l3.915,-2.135l2.492,-0.356l2.937,-0.653l1.424,2.491l2.638,0.356l1.652,-1.22l5.375,7.324l2.857,3.953l0.049,0.008l0.009,0.012l17.434,2.552l18.084,4.771l1.463,0.515l4.742,1.71l26.687,6.041l3.042,3.388l1.391,1.65l4.544,1.719l3.272,1.265l4.343,22.797l3.699,2.747l1.857,1.632l-2.1,4.999l-3.916,3.559l-4.627,10.323l-2.848,5.339l0.356,3.915l3.204,0.712l2.492,-4.271l4.304,-1.78l1.78,-4.983l4.271,-3.915l6.051,-8.899l9.255,-13.882l1.78,-1.068l0.711,2.136l-0.356,4.983l-6.407,14.95l-6.051,12.458l0.997,9.183l-1.424,5.695l1.78,2.848l-0.356,6.051l-4.272,5.339l-1.068,3.916l1.424,7.83l1.424,7.475l-3.203,5.695l-1.78,6.407l-2.136,6.763l2.492,5.34l1.424,13.526l2.596,9.966l0.147,6.952l-99.739,5.878l-2.558,-2.63l-0.16,-0.202l-0.043,-0.007l-0.195,-0.2l-6.544,-1.007l-1.83,-0.832l-3.731,-1.91l-5.339,-8.062l-0.174,-0.27l-0.135,-1.881l-0.309,-5.208l4.469,-7.463l-0.006,-0.033l0.008,-0.013l-0.503,-3.021l-0.06,-0.041l-0.004,-0.025l-3.107,-2.153l-1.855,-1.299l-1.617,-8.107l-1.535,-12.469l-0.3,-2.875l-0.065,-0.087l-0.015,-0.126l-4.53,-6.041l-0.09,-0.052l-0.018,-0.025l-15.517,-9.012l-8.538,-12.557l-1.554,-0.207l-5.934,-0.884l-2.077,-3.44l-2.013,-3.523l-7.47,0l-6.601,-6.544l-0.812,-14.819l-0.218,-4.782l0,-3.555l4.027,-7.047l-1.511,-7.047l-5.537,-4.531l-0.84,-0.42l-0.033,-0.025l4.901,-13.147l11.577,-8.557l1.231,-1.723l1.42,-1.743l-0.134,-11.409l0,-7.274l0.504,-6.04l2.872,-3.848l1.819,-2.367l-0.031,-0.028l-1.788,2.395l-2.946,3.834l-0.504,7.027l0.074,6.301l0,11.352l-1.286,1.8l-1.61,1.976l-11.188,8.278l-0.01,0.026l-0.001,0.001l-5.033,13.088l0.166,0.083l6.29,4.893l1.497,7.105l-4.085,7.132l0.159,3.47l0,5.003l1.006,14.598l6.544,6.544l0.081,0l0.066,0.066l7.33,0l2.087,3.457l2.014,3.525l5.997,0.799l1.507,0.225l8.497,12.487l0.088,0.052l0.02,0.028l15.515,9.009l4.635,6.219l0.365,2.962Zm23.96,55.834c0,0 0,0 0,0l0,0Zm101.007,-4.879l0,0l0,0l0,0Zm182.297,-44.326l0,0l0,0l0,0Zm-281.714,-137.996l-5.332,-7.376l0,0l0,0l1.577,-1.278l6.051,-1.78l7.831,-4.983l0,-2.136l1.424,-1.424l13.17,-2.136l5.339,-4.271l9.611,-4.627l0.355,-2.848l4.272,-6.407l3.915,-1.78l2.848,-3.915l4.983,-4.983l9.611,-5.339l10.322,-1.068l2.492,2.491l-0.712,2.136l-8.187,2.136l-3.204,6.763l-4.983,1.779l-1.068,5.34l-5.339,7.119l-0.712,5.695l1.78,1.068l2.136,-2.492l7.831,-6.407l2.847,2.847l4.983,0l7.119,2.136l3.204,2.492l3.203,6.763l6.051,6.051l8.543,-0.356l3.204,-2.136l3.559,2.848l3.56,1.068l2.847,-1.78l2.492,0l3.559,-2.136l8.899,-7.831l7.475,-2.491l14.594,-0.712l9.966,-4.271l5.695,-2.848l3.204,0.356l0,12.458l1.068,0.712l6.407,1.78l4.271,-1.068l13.526,-3.56l2.492,-2.491l3.203,1.068l0,15.305l7.119,6.763l2.848,1.424l2.847,2.136l-2.847,0.712l-1.78,-0.712l-8.187,-1.068l-4.627,1.424l-4.983,-0.356l-7.119,3.203l-3.916,0l-12.814,-2.847l-11.39,0.356l-4.271,5.695l-15.306,1.424l-5.339,1.779l-2.492,6.763l-2.847,2.492l-1.068,-0.356l-3.204,-3.559l-9.966,5.339l-1.424,0l-2.492,-3.56l-1.78,0.356l-4.271,9.611l-2.136,8.898l-7.004,15.415l-0.06,-0.053l0.081,-0.193l-1.938,-1.439l-0.674,-0.592l-3.02,-2.271l-4.273,-22.652l-0.075,-0.029l-0.005,-0.029l-3.267,-1.236l-4.458,-1.723l-1.477,-1.646l-2.895,-3.433l-26.707,-5.992l-4.869,-1.714l-1.545,-0.557l-18.122,-4.784l-17.323,-2.509l-2.906,-3.961Zm215.514,-0.828l1.423,5.517l7.119,0.356l2.848,-2.67c0,0 -0.178,-3.203 -0.89,-3.559c-0.712,-0.356 -3.559,-4.094 -3.559,-4.094l-4.806,0.534l-3.559,0.356l-0.712,2.492l2.136,1.068Zm-189.741,-70.741l4.028,-4.53l4.782,-1.762l11.829,-8.558l5.034,-1.258l1.007,1.007l-11.326,11.326l-7.299,4.279l-4.531,2.013l-3.524,-2.517Z" style="fill:#738ea6;fill-opacity:0.24;fill-rule:nonzero;stroke:#fff;stroke-opacity:0.27;stroke-width:1.35px;"/></g><path id="IL" d="M337.848,525.251l0.069,-7.111l1.249,-10.23l5.136,-6.42l4.11,-8.974l4.917,-8.797l-0.818,-11.565l-4.415,-7.8l-0.213,-7.369l1.53,-11.603l-1.817,-15.805l-2.348,-34.739l-2.848,-33.065l-2.03,-25.628l-0.6,-2.029l-1.78,-5.695l-2.848,-8.187l-3.559,-3.915l-3.204,-5.695l-0.514,-12.086l-100.835,5.721l0.503,5.223l5.034,1.51l2.013,2.517l1.007,4.027l8.558,7.551l1.51,5.033l-1.51,7.551l-4.027,8.054l-1.51,5.538l-5.034,4.027l-4.027,1.51l-11.578,3.02l-1.51,4.027l-1.511,4.531l1.511,3.02l4.027,3.524l-0.504,9.061l-4.027,3.523l-1.51,3.524l0,6.041l-4.027,1.006l-3.524,2.517l-0.503,3.021l0.503,4.53l-3.775,2.895l-2.265,6.166l1.007,8.054l5.033,16.109l16.109,16.611l12.081,8.055l-0.504,9.564l2.014,3.02l14.095,1.007l6.04,3.02l-1.51,8.054l-5.034,13.088l-1.51,7.048l5.034,8.557l14.095,11.578l10.068,1.51l4.53,11.075l4.531,7.047l-2.014,6.544l3.524,9.061l4.027,4.531l3.113,-1.939l1.999,-4.569l4.873,-3.847l4.693,-1.353l5.73,2.598l7.986,3.029l2.618,-0.656l0.44,-4.973l-2.834,-5.31l0.669,-5.234l4.048,-2.966l6.655,-1.784l2.776,-1.01l-1.348,-3.054l-1.743,-5.184l3.154,-2.16l2.549,-7.076l0,0Z" style="fill:url(#_Linear2);fill-rule:nonzero;stroke:#fff;stroke-width:1.65px;"/></g></g><defs><linearGradient id="_Linear2" x1="0" y1="0" x2="1" y2="0" gradientUnits="userSpaceOnUse" gradientTransform="matrix(152.475,0,0,272.201,200.854,434.638)"><stop offset="0" style="stop-color:#fdb475;stop-opacity:0.9"/><stop offset="1" style="stop-color:#dd8478;stop-opacity:0.9"/></linearGradient></defs></svg>