<?xml version="1.0" encoding="UTF-8" standalone="no"?><!DOCTYPE svg PUBLIC "-//W3C//DTD SVG 1.1//EN" "http://www.w3.org/Graphics/SVG/1.1/DTD/svg11.dtd"><svg width="100%" height="100%" viewBox="0 0 458 484" version="1.1" xmlns="http://www.w3.org/2000/svg" xmlns:xlink="http://www.w3.org/1999/xlink" xml:space="preserve" xmlns:serif="http://www.serif.com/" style="fill-rule:evenodd;clip-rule:evenodd;"><g><path id="MI-" d="M39.679,319.058l2.568,-0.129l106.277,-3.964l1.888,3.775l2.338,2.865l1.804,2.288l-1.303,3.724l0.38,6.977l3.775,12.082l11.519,12.833l9.061,5.666l0.185,6.986l1.697,2.827l11.321,1.317l3.219,1.703l-0.758,4.729l-3.401,10.004l-1.32,5.285l2.839,6.793l11.508,9.246l7.925,1.32l3.023,7.556l3.211,5.66l-1.323,4.159l2.122,7.858l3.291,3.678l2.197,-1.625l2.798,4.201l-1.677,3.198l-0.086,5.037l-4.287,2.455l-3.464,4.22l-1.076,9.671l-2.835,9.072l-6.432,1.133l-8.883,-0.755l0.946,-3.034l5.098,-3.969l1.13,-5.461l-3.583,-5.658l-19.246,0.38l-34.356,1.323l-38.321,1.133l-37.046,1.431l-0.754,-8.89l-0.378,-7.739l-0.519,-59.569l-2.265,-19.254l-4.153,-3.02l-4.153,-4.908l-3.398,-5.664l0.755,-3.775l3.02,-2.643l0,-4.908l-2.471,-1.51l-3.569,-0.378l-5.097,-4.53l-5.096,-6.796l-4.154,-6.418l0.378,-3.776l-2.005,-4.008l1.136,-0.204Zm235.445,-54.386l5.3,-5.018l0.534,-4.538l4.005,-8.543l1.602,-9.877l1.335,-7.743l-2.403,-8.008l-4.806,-10.679l-5.873,-9.877l0.534,-4.538l0.534,-1.335l1.335,-4.005l-0.801,-1.869l-1.068,-7.741l2.67,-6.674l1.868,-10.145l-1.334,-4.004l0,-1.869l3.737,-0.8l1.068,-4.272l-1.068,-1.335l0.267,-1.602l2.937,-3.203l4.538,-1.869l1.602,-6.941l3.203,-1.334l1.335,1.334l-1.068,4.005l-2.135,4.004l0,6.941l1.067,0.267l5.873,-3.471l-0.534,-9.076l-0.533,-2.67l0.533,-3.47l2.403,-2.937l4.272,-0.534l4.271,-1.335l-0.801,-1.335l-3.47,-0.801l-1.602,-0.533l-0.534,-5.873l4.806,-3.738l4.805,-2.936l5.071,3.737l1.602,0.801l1.068,-1.068l4.539,0l9.076,5.606l7.475,2.403l4.272,0l2.136,4.271l4.004,3.738l-0.267,2.67l-2.67,-0.534l-1.334,1.334l1.334,3.471l2.136,1.335l2.669,3.737l0.534,16.551l-4.004,2.67l-1.068,4.271l-1.334,5.607l-5.607,2.136c0,0 -0.534,7.207 -0.801,8.275c-0.267,1.068 4.005,3.47 4.005,3.47l2.403,1.068l1.868,-1.068l4.538,-6.14l3.204,-8.275l6.407,-2.937l2.67,-1.869l4.271,2.937l4.004,5.339l3.737,14.95l5.34,13.615l0.534,15.751l-3.204,1.601l-1.335,-0.267l-0.267,-1.067l-1.734,-1.001l-2.537,5.005l-0.367,5.873l-1.801,0.567l-2.637,2.637l0.367,8.342l-3.303,2.87l-3.471,6.14l-0.255,2.298l-16.814,2.67l-18.118,3.531l0.006,0.12l11.316,-2.003l17.005,-2.482l6.365,-0.761l0.228,-0.97l0.012,-0.105l0.005,0l8.08,-1.162l3.931,2.231l4.272,2.402l8.543,-1.068l5.606,5.073l3.47,-0.267l9.077,-4.272l4.805,-0.801l5.339,-1.334l6.674,-6.407l5.607,-6.14l6.406,-3.738l10.063,-6.693l4.805,31.973l3.78,14.941l-2.98,2.889l-0.579,1.965l1.576,4.781l0.292,8.763l-0.801,8.276l-0.529,8.348l-4.576,6.736l-5.073,5.606l-3.738,2.67l-3.47,-0.801l-1.734,2.548l-3.555,5.461l-1.237,1.771l-0.109,3.822l1.843,3.142l-0.724,2.412l-2.839,1.713l-0.889,-2.802l-2.182,-1.895l-2.145,0.993l-1.691,6.785l-0.164,7.915l-2.618,2.402l-0.305,4.561l-2.202,0.813l-3.603,0.133l-5.74,-3.87l-2.937,-1.602l-1.067,-4.539l-3.42,1.125l-3.873,2.136l-2.852,3.521l-8.953,-0.797l-4.135,-0.613l-4.192,2.215l-2.908,0.108l-3.124,-3.499l-8.486,0.028l-3.42,-7.208l-5.554,-2.482l-4.004,1.335l-6.808,0.213l-0.935,-7.978l-4.271,-38.709l-2.623,-20.274l-0.27,-2.335l-0.586,-6.218l-1.593,-18.025l0.388,-0.076l-0.153,-2.632l-12.018,1.63l-31.548,3.333l-2.487,0.256l-8.409,0.268l-0.125,0.071l-0.081,0.077l7.28,-0.268l3.822,-0.404l33.82,-3.481l9.208,-0.881l1.896,20.132l0.542,6.135l0.314,2.418l6.75,58.504l0.989,9.531l-0.614,3.737l2.028,2.965l0.159,2.267l-4.164,2.641l-5.844,2.562l-5.288,0.909l-0.988,8.037l-7.555,5.469l-4.618,6.623l0.534,3.925l-0.96,2.534l-5.493,0l-2.618,-2.67l-4.118,2.084l-4.431,2.483l0.267,5.043l-1.971,0.426l-0.772,-1.68l-3.578,-2.483l-5.368,2.216l-2.562,4.964l-2.374,-1.335l-2.403,-2.642l-7.372,0.801l-9.236,1.602l-4.805,2.562l0.108,-4.72l0.8,-7.475l3.738,-4.806l2.936,-6.407l4.272,-6.94l-0.801,-9.612l-2.937,-4.538l-0.534,-5.339l1.335,-9.077l-0.801,-11.479l-2.136,-26.429l-2.135,-25.361l-1.603,-19.354l5.072,1.469l2.403,1.602l1.868,-0.534l3.471,-3.204l4.548,-2.599Zm-119.615,-53.496l0.074,0.602l1.133,5.475l0.006,0.003l0.002,0.012l1.389,0.963l2.333,1.633l0.416,2.306l-3.392,5.653l0.277,3.875l0.082,1.388l0.15,0.226l4.022,6.215l2.78,1.264l1.374,0.703l5.053,0.826l0.152,0.157l0.968,1.223l0.436,4.6l3.672,0.954l1.576,2.023l0.825,3.064l6.264,5.547l1.132,3.949l-1.113,5.655l-2.613,5.337l-1.32,4.527l-3.588,2.646l-2.833,0.945l-9.213,3.072l-2.298,6.356l1.203,2.266l3.04,2.778l-0.468,6.665l-2.911,2.539l-1.274,2.714l0.21,4.585l-3.115,0.755l-2.684,1.825l-0.461,2.233l0.461,3.493l-2.562,1.843l-0.14,-0.178l0.019,-0.055l-1.823,-2.233l-2.136,-2.709l-2.085,-4.045l-108.553,4.153l-0.297,0.054l-1.208,0.06l0.072,0.144l-0.083,0.015l-3.389,-7.458l-0.378,-10.948l-2.642,-6.796l-1.134,-8.683l-3.774,-6.041l-1.511,-7.928l-4.531,-12.459l-1.887,-8.872l-2.265,-3.586l-2.643,-4.531l3.227,-7.999l2.265,-9.439l-4.53,-3.397l-0.755,-4.531l1.509,-4.153l2.832,0l136.492,-2.096l0.163,0.816Zm-1.151,-9.352l0.883,8.478l-134.11,1.89l-0.558,-58.915l-0.755,-4.908l-6.796,-5.663l-1.887,-3.021l0,-2.642l3.398,-2.643l2.265,-2.265l0.378,-5.286l-0.755,-13.969l-3.021,-12.081l-3.02,-22.275l-0.755,-16.234l-3.02,-5.663l-2.643,-8.306l0,-16.989l1.132,-6.418l-3.007,-9.003l49.76,0.058l0.534,-13.615l1.068,-0.267l3.737,0.801l3.203,1.335l1.335,9.077l2.403,10.144l2.67,2.67l8.009,0l0.533,2.403l10.412,0.534l0,3.47l8.009,0l0.534,-2.136l1.868,-1.868l3.737,-1.068l2.136,1.602l4.806,0l6.407,4.271l8.809,4.004l4.005,0.801l0.801,-1.602l2.403,-0.801l0.8,4.805l4.272,2.136l0.801,-0.801l2.135,0.267l0,3.471l4.271,1.602l5.073,0l2.67,-1.335l5.339,-5.34l4.271,-0.8l1.334,2.936l0.801,2.136l1.602,0l1.602,-1.335l14.683,-0.534l2.936,5.073l1.068,0l1.179,-1.791l7.332,-0.612l-1.011,3.764l-6.504,3.034l-15.268,6.706l-7.886,3.314l-5.072,4.272l-4.004,5.873l-3.737,6.407l-2.937,1.334l-7.475,8.277l-2.136,0.267l-7.147,4.552l-0.492,0.642l1.598,1.43l4.805,0.801l4.805,-1.068l12.28,-5.34l4.805,-3.203l3.471,-1.335l3.204,2.402l-1.869,1.869l-3.204,5.073l-1.068,3.203l1.602,1.068l2.937,-1.601l1.869,-0.267l2.202,-0.49l1.068,1.868l1.979,0.267l1.239,-0.915l4.031,5.493l2.143,2.965l0.037,0.006l0.006,0.009l13.076,1.914l13.563,3.578l1.097,0.386l3.557,1.283l20.015,4.531l2.281,2.541l1.044,1.237l3.408,1.289l2.454,0.949l3.257,17.098l2.774,2.06l1.393,1.224l-1.575,3.749l-2.937,2.67l-3.47,7.742l-2.136,4.004l0.267,2.936l2.403,0.534l1.869,-3.203l3.228,-1.335l1.335,-3.737l3.203,-2.936l4.538,-6.675l6.941,-10.411l1.335,-0.801l0.534,1.602l-0.267,3.737l-4.806,11.213l-4.538,9.343l0.748,6.887l-1.068,4.272l1.335,2.136l-0.267,4.538l-3.204,4.004l-0.801,2.937l1.068,5.873l1.068,5.606l-2.402,4.271l-1.335,4.805l-1.602,5.073l1.869,4.005l1.068,10.144l1.947,7.475l0.11,5.214l-74.804,4.408l-1.919,-1.972l-0.12,-0.152l-0.032,-0.005l-0.146,-0.15l-4.908,-0.755l-1.373,-0.624l-2.798,-1.433l-4.004,-6.046l-0.131,-0.203l-0.101,-1.411l-0.232,-3.906l3.352,-5.597l-0.005,-0.025l0.006,-0.009l-0.377,-2.266l-0.045,-0.031l-0.003,-0.019l-2.33,-1.614l-1.391,-0.975l-1.213,-6.08l-1.151,-9.352l-0.225,-2.156l-0.049,-0.065l-0.011,-0.095l-3.398,-4.53l-0.067,-0.039l-0.014,-0.019l-11.638,-6.759l-6.403,-9.418l-1.166,-0.155l-4.45,-0.663l-1.558,-2.58l-1.51,-2.642l-5.602,0l-4.951,-4.908l-0.609,-11.115l-0.163,-3.586l0,-2.666l3.02,-5.286l-1.133,-5.285l-4.153,-3.398l-0.63,-0.315l-0.025,-0.019l3.676,-9.86l8.683,-6.418l0.923,-1.292l1.065,-1.307l-0.101,-8.557l0,-5.456l0.378,-4.53l2.154,-2.886l1.365,-1.775l-0.024,-0.021l-1.341,1.796l-2.209,2.876l-0.378,5.27l0.055,4.726l0,8.514l-0.964,1.35l-1.208,1.482l-8.391,6.208l-0.007,0.02l-0.001,0.001l-3.775,9.816l0.125,0.062l4.717,3.67l1.123,5.328l-3.064,5.349l0.12,2.603l0,3.752l0.754,10.949l4.908,4.908l0.061,0l0.049,0.049l5.498,0l1.565,2.593l1.511,2.644l4.497,0.599l1.131,0.169l6.372,9.365l0.066,0.039l0.015,0.021l11.637,6.757l3.476,4.664l0.274,2.221Zm17.97,41.876l0,0Zm1.192,-140.401l-3.999,-5.532l1.183,-0.958l4.538,-1.335l5.873,-3.738l0,-1.602l1.068,-1.068l9.878,-1.602l4.004,-3.203l7.208,-3.47l0.267,-2.136l3.204,-4.805l2.936,-1.335l2.136,-2.937l3.737,-3.737l7.208,-4.004l7.742,-0.801l1.869,1.868l-0.534,1.602l-6.14,1.602l-2.403,5.072l-3.738,1.335l-0.801,4.005l-4.004,5.339l-0.534,4.271l1.335,0.801l1.602,-1.869l5.873,-4.805l2.136,2.135l3.737,0l5.339,1.602l2.403,1.869l2.402,5.072l4.539,4.539l6.407,-0.267l2.403,-1.602l2.669,2.136l2.67,0.801l2.135,-1.335l1.869,0l2.67,-1.602l6.674,-5.874l5.606,-1.868l10.946,-0.534l7.474,-3.203l4.271,-2.136l2.403,0.267l0,9.343l0.801,0.534l4.806,1.335l3.203,-0.801l10.144,-2.67l1.869,-1.868l2.403,0.801l0,11.479l5.339,5.072l2.136,1.068l2.135,1.602l-2.135,0.534l-1.335,-0.534l-6.14,-0.801l-3.471,1.068l-3.737,-0.267l-5.339,2.402l-2.937,0l-9.611,-2.135l-8.542,0.267l-3.203,4.271l-11.48,1.068l-4.004,1.335l-1.869,5.072l-2.135,1.869l-0.801,-0.267l-2.403,-2.669l-7.475,4.004l-1.068,0l-1.869,-2.67l-1.335,0.267l-3.203,7.208l-1.602,6.674l-5.253,11.561l-0.045,-0.04l0.061,-0.145l-1.454,-1.079l-0.505,-0.444l-2.265,-1.703l-3.205,-16.989l-0.056,-0.022l-0.004,-0.022l-2.45,-0.927l-3.344,-1.292l-1.108,-1.234l-2.171,-2.575l-20.03,-4.494l-3.652,-1.286l-1.159,-0.417l-13.591,-3.588l-12.992,-1.882l-2.18,-2.971Zm161.636,-0.621l1.067,4.138l5.339,0.267l2.136,-2.003c0,0 -0.133,-2.402 -0.667,-2.669c-0.534,-0.267 -2.67,-3.07 -2.67,-3.07l-3.604,0.4l-2.669,0.267l-0.534,1.869l1.602,0.801Zm-142.306,-53.056l3.021,-3.397l3.586,-1.322l8.872,-6.418l3.776,-0.944l0.755,0.756l-8.495,8.494l-5.474,3.209l-3.398,1.51l-2.643,-1.888Z" style="fill:#738ea6;fill-opacity:0.24;fill-rule:nonzero;stroke:#fff;stroke-opacity:0.27;stroke-width:1.01px;"/><path id="IL" d="M255.473,410.088l0.052,-5.333l0.937,-7.673l3.852,-4.815l3.082,-6.73l3.688,-6.598l-0.613,-8.674l-3.312,-5.85l-0.159,-5.526l1.147,-8.703l-1.363,-11.853l-1.761,-26.055l-2.136,-24.798l-1.522,-19.221l-0.45,-1.522l-1.335,-4.271l-2.136,-6.141l-2.669,-2.936l-2.403,-4.271l-0.386,-9.065l-75.626,4.291l0.377,3.917l3.776,1.133l1.509,1.888l0.756,3.02l6.418,5.663l1.133,3.775l-1.133,5.663l-3.02,6.041l-1.133,4.153l-3.775,3.02l-3.02,1.133l-8.684,2.265l-1.132,3.02l-1.134,3.398l1.134,2.265l3.02,2.643l-0.378,6.796l-3.02,2.642l-1.133,2.643l0,4.531l-3.02,0.755l-2.643,1.887l-0.377,2.266l0.377,3.398l-2.831,2.171l-1.699,4.624l0.755,6.041l3.775,12.082l12.082,12.458l9.06,6.041l-0.378,7.173l1.511,2.265l10.571,0.755l4.53,2.265l-1.132,6.041l-3.776,9.816l-1.132,5.286l3.775,6.418l10.571,8.683l7.551,1.133l3.398,8.306l3.398,5.285l-1.51,4.908l2.643,6.796l3.02,3.398l2.335,-1.454l1.499,-3.427l3.655,-2.885l3.519,-1.015l4.298,1.949l5.989,2.271l1.964,-0.492l0.33,-3.729l-2.126,-3.983l0.502,-3.925l3.036,-2.225l4.991,-1.338l2.082,-0.757l-1.011,-2.291l-1.307,-3.888l2.366,-1.62l1.911,-5.307Z" style="fill:url(#_Linear1);fill-rule:nonzero;stroke:#fff;stroke-width:1.24px;"/></g><defs><linearGradient id="_Linear1" x1="0" y1="0" x2="1" y2="0" gradientUnits="userSpaceOnUse" gradientTransform="matrix(114.356,0,0,114.356,152.728,342.128)"><stop offset="0" style="stop-color:#fd7575;stop-opacity:1"/><stop offset="1" style="stop-color:#d96767;stop-opacity:1"/></linearGradient></defs></svg>