<?xml version="1.0" encoding="UTF-8" standalone="no"?><!DOCTYPE svg PUBLIC "-//W3C//DTD SVG 1.1//EN" "http://www.w3.org/Graphics/SVG/1.1/DTD/svg11.dtd"><svg width="100%" height="100%" viewBox="0 0 143 34" version="1.1" xmlns="http://www.w3.org/2000/svg" xmlns:xlink="http://www.w3.org/1999/xlink" xml:space="preserve" xmlns:serif="http://www.serif.com/" style="fill-rule:evenodd;clip-rule:evenodd;stroke-linejoin:round;stroke-miterlimit:2;"><g id="Under-Armour-Logo" serif:id="Under Armour Logo"><g transform="matrix(1,0,0,1,-15.9643,7.04661)"><text x="76.164px" y="8.003px" style="font-family:'Barlow-Regular', 'Barlow';font-size:13px;fill:#fff;">Sponsored b<tspan x="146.559px " y="8.003px ">y</tspan></text><text x="76.164px" y="21.003px" style="font-family:'Barlow-Bold', 'Barlow';font-weight:700;font-size:13px;fill:#fff;">Under Armour</text></g></g><path d="M42.417,16.877c5.701,-2.508 9.424,-6.275 9.627,-10.453c0,0 -1.505,-1.16 -6.365,-2.948c-4.268,-1.57 -7.523,-1.93 -7.523,-1.93l0.015,9.31c0,1.392 -0.559,2.812 -1.613,4.069c-3.226,-0.779 -6.791,-1.216 -10.53,-1.217l-0.002,0c-3.742,0.001 -7.311,0.439 -10.54,1.219c-1.054,-1.257 -1.614,-2.678 -1.614,-4.071l0.014,-9.31c0,0 -3.254,0.36 -7.524,1.93c-4.859,1.788 -6.362,2.948 -6.362,2.948c0.202,4.179 3.926,7.947 9.633,10.455c-5.702,2.509 -9.425,6.275 -9.627,10.453c0,0 1.504,1.16 6.364,2.947c4.269,1.57 7.523,1.93 7.523,1.93l-0.015,-9.31c0,-1.391 0.559,-2.813 1.614,-4.069c3.226,0.781 6.79,1.216 10.529,1.216l0.001,0c3.743,0 7.313,-0.437 10.541,-1.219c1.054,1.257 1.613,2.681 1.613,4.072l-0.013,9.31c0,0 3.255,-0.36 7.523,-1.93c4.86,-1.787 6.364,-2.947 6.364,-2.947c-0.203,-4.18 -3.927,-7.948 -9.633,-10.455m-16.394,2.095l-0.004,0l-0.106,-0.003c-3.376,0 -6.128,-0.826 -8.147,-2.09c2.019,-1.265 4.772,-2.093 8.154,-2.093l0.104,-0.001l0.005,0l0.107,0.001c3.377,0 6.128,0.826 8.147,2.09c-2.019,1.264 -4.773,2.093 -8.153,2.093" style="fill:#fff;fill-rule:nonzero;"/></svg>