<?xml version="1.0" encoding="UTF-8" standalone="no"?><!DOCTYPE svg PUBLIC "-//W3C//DTD SVG 1.1//EN" "http://www.w3.org/Graphics/SVG/1.1/DTD/svg11.dtd"><svg width="100%" height="100%" viewBox="0 0 143 34" version="1.1" xmlns="http://www.w3.org/2000/svg" xmlns:xlink="http://www.w3.org/1999/xlink" xml:space="preserve" xmlns:serif="http://www.serif.com/" style="fill-rule:evenodd;clip-rule:evenodd;stroke-linejoin:round;stroke-miterlimit:2;"><g id="Under-Armour-Logo" serif:id="Under Armour Logo"><g><path d="M66.322,15.69c-0.511,0 -1.163,-0.111 -1.958,-0.334l0,-1.069c0.856,0.398 1.56,0.596 2.112,0.596c0.425,0 0.767,-0.111 1.025,-0.334c0.259,-0.223 0.389,-0.516 0.389,-0.879c0,-0.298 -0.085,-0.551 -0.255,-0.76c-0.17,-0.209 -0.482,-0.442 -0.938,-0.699l-0.524,-0.304c-0.648,-0.37 -1.104,-0.718 -1.37,-1.046c-0.266,-0.327 -0.398,-0.708 -0.398,-1.143c0,-0.586 0.212,-1.069 0.637,-1.447c0.425,-0.379 0.966,-0.568 1.624,-0.568c0.586,0 1.205,0.098 1.856,0.293l0,0.987c-0.802,-0.316 -1.4,-0.473 -1.794,-0.473c-0.374,0 -0.682,0.099 -0.925,0.298c-0.244,0.199 -0.365,0.449 -0.365,0.75c0,0.254 0.089,0.478 0.267,0.674c0.178,0.195 0.504,0.428 0.977,0.699l0.544,0.308c0.658,0.374 1.118,0.727 1.378,1.059c0.26,0.332 0.391,0.731 0.391,1.197c0,0.662 -0.245,1.193 -0.733,1.594c-0.488,0.401 -1.135,0.601 -1.94,0.601Z" style="fill:#fff;fill-opacity:0.78;fill-rule:nonzero;"/><path d="M74.021,15.5l0,-1.048c-0.538,0.784 -1.19,1.177 -1.958,1.177c-0.487,0 -0.874,-0.154 -1.162,-0.46c-0.287,-0.307 -0.431,-0.721 -0.431,-1.242l0,-4.009l1.012,0l0,3.68c0,0.418 0.061,0.716 0.183,0.892c0.121,0.177 0.324,0.265 0.609,0.265c0.617,0 1.199,-0.406 1.747,-1.218l0,-3.619l1.013,0l0,5.582l-1.013,0Z" style="fill:#fff;fill-opacity:0.78;fill-rule:nonzero;"/><path d="M77.064,17.53l0,-7.612l1.013,0l0,1.049c0.414,-0.782 1.036,-1.172 1.865,-1.172c0.672,0 1.201,0.245 1.586,0.735c0.386,0.49 0.578,1.16 0.578,2.009c0,0.926 -0.218,1.672 -0.655,2.239c-0.437,0.567 -1.012,0.851 -1.724,0.851c-0.662,0 -1.212,-0.254 -1.65,-0.761l0,2.662l-1.013,0Zm1.013,-3.361c0.521,0.466 1.017,0.699 1.49,0.699c0.973,0 1.46,-0.742 1.46,-2.226c0,-1.309 -0.432,-1.963 -1.295,-1.963c-0.566,0 -1.117,0.307 -1.655,0.92l0,2.57Z" style="fill:#fff;fill-opacity:0.78;fill-rule:nonzero;"/><path d="M83.689,17.53l0,-7.612l1.013,0l0,1.049c0.415,-0.782 1.036,-1.172 1.866,-1.172c0.671,0 1.2,0.245 1.585,0.735c0.386,0.49 0.579,1.16 0.579,2.009c0,0.926 -0.219,1.672 -0.656,2.239c-0.437,0.567 -1.011,0.851 -1.724,0.851c-0.662,0 -1.211,-0.254 -1.65,-0.761l0,2.662l-1.013,0Zm1.013,-3.361c0.521,0.466 1.018,0.699 1.49,0.699c0.974,0 1.46,-0.742 1.46,-2.226c0,-1.309 -0.432,-1.963 -1.295,-1.963c-0.565,0 -1.117,0.307 -1.655,0.92l0,2.57Z" style="fill:#fff;fill-opacity:0.78;fill-rule:nonzero;"/><path d="M92.499,15.629c-0.798,0 -1.436,-0.265 -1.912,-0.795c-0.476,-0.529 -0.714,-1.237 -0.714,-2.125c0,-0.898 0.239,-1.608 0.717,-2.13c0.478,-0.523 1.126,-0.784 1.945,-0.784c0.819,0 1.467,0.261 1.945,0.784c0.478,0.522 0.717,1.229 0.717,2.12c0,0.911 -0.239,1.627 -0.719,2.148c-0.48,0.521 -1.139,0.782 -1.979,0.782Zm0.015,-0.761c1.073,0 1.609,-0.723 1.609,-2.169c0,-1.429 -0.529,-2.143 -1.588,-2.143c-1.055,0 -1.583,0.717 -1.583,2.153c0,1.439 0.521,2.159 1.562,2.159Z" style="fill:#fff;fill-opacity:0.78;fill-rule:nonzero;"/><path d="M96.781,15.5l0,-5.582l1.012,0l0,1.049c0.401,-0.782 0.984,-1.172 1.748,-1.172c0.102,0 0.21,0.008 0.323,0.026l0,0.945c-0.174,-0.058 -0.328,-0.087 -0.462,-0.087c-0.641,0 -1.177,0.38 -1.609,1.141l0,3.68l-1.012,0Z" style="fill:#fff;fill-opacity:0.78;fill-rule:nonzero;"/><path d="M102.763,15.629c-0.514,0 -0.915,-0.148 -1.202,-0.443c-0.288,-0.294 -0.432,-0.704 -0.432,-1.228l0,-3.279l-0.699,0l0,-0.761l0.699,0l0,-1.012l1.012,-0.098l0,1.11l1.46,0l0,0.761l-1.46,0l0,3.094c0,0.73 0.316,1.095 0.946,1.095c0.134,0 0.297,-0.022 0.488,-0.067l0,0.699c-0.311,0.086 -0.582,0.129 -0.812,0.129Z" style="fill:#fff;fill-opacity:0.78;fill-rule:nonzero;"/><path d="M109.116,15.32c-0.678,0.206 -1.259,0.309 -1.742,0.309c-0.823,0 -1.493,-0.274 -2.012,-0.82c-0.52,-0.547 -0.779,-1.255 -0.779,-2.126c0,-0.846 0.229,-1.54 0.686,-2.081c0.457,-0.542 1.043,-0.812 1.755,-0.812c0.675,0 1.197,0.24 1.565,0.719c0.369,0.48 0.553,1.162 0.553,2.046l-0.005,0.313l-3.521,0c0.147,1.327 0.797,1.99 1.948,1.99c0.421,0 0.939,-0.114 1.552,-0.34l0,0.802Zm-3.454,-3.212l2.462,0c0,-1.039 -0.387,-1.558 -1.161,-1.558c-0.778,0 -1.212,0.519 -1.301,1.558Z" style="fill:#fff;fill-opacity:0.78;fill-rule:nonzero;"/><path d="M114.472,15.5l0,-1.048c-0.411,0.784 -1.031,1.177 -1.861,1.177c-0.671,0 -1.2,-0.245 -1.585,-0.735c-0.386,-0.49 -0.579,-1.16 -0.579,-2.01c0,-0.929 0.219,-1.676 0.656,-2.241c0.437,-0.566 1.011,-0.848 1.724,-0.848c0.661,0 1.21,0.253 1.645,0.761l0,-3.172l1.018,0l0,8.116l-1.018,0Zm0,-4.251c-0.524,-0.462 -1.021,-0.693 -1.491,-0.693c-0.969,0 -1.454,0.741 -1.454,2.225c0,1.306 0.432,1.958 1.295,1.958c0.562,0 1.112,-0.306 1.65,-0.92l0,-2.57Z" style="fill:#fff;fill-opacity:0.78;fill-rule:nonzero;"/><path d="M120.814,15.5l0,-7.607l1.974,0c0.761,0 1.344,0.144 1.75,0.432c0.406,0.288 0.609,0.702 0.609,1.244c0,0.921 -0.52,1.578 -1.562,1.968c1.244,0.381 1.866,1.068 1.866,2.061c0,0.617 -0.206,1.088 -0.617,1.414c-0.411,0.325 -1.004,0.488 -1.779,0.488l-2.241,0Zm1.07,-0.807l0.221,0c0.791,0 1.303,-0.05 1.536,-0.149c0.446,-0.188 0.669,-0.538 0.669,-1.049c0,-0.452 -0.203,-0.828 -0.607,-1.128c-0.404,-0.3 -0.91,-0.449 -1.516,-0.449l-0.303,0l0,2.775Zm0,-3.459l0.344,0c0.576,0 1.022,-0.123 1.339,-0.37c0.317,-0.247 0.475,-0.595 0.475,-1.043c0,-0.747 -0.579,-1.121 -1.737,-1.121l-0.421,0l0,2.534Z" style="fill:#fff;fill-opacity:0.78;fill-rule:nonzero;"/><path d="M127.224,17.53l0.904,-2.03l-2.158,-5.582l1.095,0l1.598,4.205l1.706,-4.205l0.956,0l-3.047,7.612l-1.054,0Z" style="fill:#fff;fill-opacity:0.78;fill-rule:nonzero;"/><path d="M64.739,18.419l1.583,0l0,4.662c0,0.737 0.122,1.269 0.365,1.596c0.243,0.327 0.635,0.491 1.177,0.491c0.517,0 0.892,-0.156 1.123,-0.468c0.231,-0.311 0.347,-0.813 0.347,-1.506l0,-4.775l1.377,0l0,4.673c0,0.702 -0.067,1.237 -0.2,1.606c-0.134,0.368 -0.377,0.688 -0.73,0.958c-0.483,0.374 -1.132,0.561 -1.948,0.561c-0.874,0 -1.576,-0.199 -2.107,-0.597c-0.367,-0.274 -0.623,-0.598 -0.769,-0.974c-0.145,-0.375 -0.218,-0.898 -0.218,-1.57l0,-4.657Z" style="fill:#fff;fill-opacity:0.78;fill-rule:nonzero;"/><path d="M72.551,26.026l0,-5.643l1.522,0l0,1.064c0.497,-0.795 1.137,-1.193 1.922,-1.193c0.504,0 0.901,0.16 1.192,0.478c0.292,0.319 0.437,0.754 0.437,1.306l0,3.988l-1.521,0l0,-3.613c0,-0.641 -0.212,-0.961 -0.637,-0.961c-0.484,0 -0.948,0.341 -1.393,1.023l0,3.551l-1.522,0Z" style="fill:#fff;fill-opacity:0.78;fill-rule:nonzero;"/><path d="M83.016,26.026l0,-1.064c-0.391,0.795 -1.006,1.193 -1.845,1.193c-0.679,0 -1.211,-0.249 -1.599,-0.745c-0.387,-0.497 -0.58,-1.181 -0.58,-2.051c0,-0.946 0.218,-1.7 0.655,-2.262c0.437,-0.562 1.024,-0.843 1.76,-0.843c0.59,0 1.126,0.233 1.609,0.699l0,-3.042l1.527,0l0,8.115l-1.527,0Zm0,-4.168c-0.367,-0.411 -0.759,-0.617 -1.177,-0.617c-0.373,0 -0.672,0.18 -0.894,0.54c-0.223,0.36 -0.334,0.843 -0.334,1.449c0,1.155 0.37,1.732 1.11,1.732c0.452,0 0.884,-0.289 1.295,-0.868l0,-2.236Z" style="fill:#fff;fill-opacity:0.78;fill-rule:nonzero;"/><path d="M91.034,25.836c-0.723,0.213 -1.408,0.319 -2.056,0.319c-0.942,0 -1.686,-0.267 -2.23,-0.802c-0.545,-0.534 -0.818,-1.264 -0.818,-2.189c0,-0.874 0.25,-1.578 0.748,-2.11c0.499,-0.533 1.158,-0.8 1.976,-0.8c0.826,0 1.429,0.261 1.81,0.782c0.38,0.52 0.57,1.345 0.57,2.472l-3.5,0c0.103,1.076 0.694,1.614 1.773,1.614c0.511,0 1.086,-0.118 1.727,-0.355l0,1.069Zm-3.521,-3.186l2.026,0c0,-0.963 -0.311,-1.445 -0.931,-1.445c-0.63,0 -0.995,0.482 -1.095,1.445Z" style="fill:#fff;fill-opacity:0.78;fill-rule:nonzero;"/><path d="M92.607,26.026l0,-5.643l1.521,0l0,1.064c0.394,-0.795 0.994,-1.193 1.799,-1.193c0.096,0 0.191,0.011 0.283,0.031l0,1.357c-0.216,-0.079 -0.416,-0.118 -0.601,-0.118c-0.607,0 -1.1,0.307 -1.481,0.92l0,3.582l-1.521,0Z" style="fill:#fff;fill-opacity:0.78;fill-rule:nonzero;"/><path d="M100.029,26.026l2.96,-7.607l1.584,0l2.96,7.607l-1.624,0l-0.792,-2.03l-3.145,0l-0.792,2.03l-1.151,0Zm2.333,-3.042l2.365,0l-1.182,-3.033l-1.183,3.033Z" style="fill:#fff;fill-opacity:0.78;fill-rule:nonzero;"/><path d="M108.612,26.026l0,-5.643l1.522,0l0,1.064c0.394,-0.795 0.994,-1.193 1.799,-1.193c0.096,0 0.19,0.011 0.283,0.031l0,1.357c-0.216,-0.079 -0.417,-0.118 -0.602,-0.118c-0.606,0 -1.1,0.307 -1.48,0.92l0,3.582l-1.522,0Z" style="fill:#fff;fill-opacity:0.78;fill-rule:nonzero;"/><path d="M113.398,26.026l0,-5.643l1.459,0l0,1.064c0.446,-0.795 1.08,-1.193 1.902,-1.193c0.425,0 0.775,0.105 1.049,0.314c0.274,0.209 0.442,0.502 0.503,0.879c0.528,-0.795 1.165,-1.193 1.912,-1.193c1.032,0 1.547,0.569 1.547,1.707l0,4.065l-1.459,0l0,-3.567c0,-0.668 -0.223,-1.002 -0.668,-1.002c-0.456,0 -0.9,0.329 -1.332,0.987l0,3.582l-1.459,0l0,-3.567c0,-0.671 -0.225,-1.007 -0.674,-1.007c-0.449,0 -0.889,0.331 -1.321,0.992l0,3.582l-1.459,0Z" style="fill:#fff;fill-opacity:0.78;fill-rule:nonzero;"/><path d="M125.975,26.155c-0.881,0 -1.581,-0.266 -2.1,-0.799c-0.519,-0.533 -0.778,-1.25 -0.778,-2.151c0,-0.912 0.261,-1.631 0.783,-2.159c0.523,-0.528 1.233,-0.792 2.131,-0.792c0.901,0 1.613,0.264 2.135,0.792c0.523,0.528 0.784,1.244 0.784,2.148c0,0.926 -0.262,1.65 -0.786,2.175c-0.524,0.524 -1.247,0.786 -2.169,0.786Zm0.026,-0.951c0.873,0 1.31,-0.67 1.31,-2.01c0,-0.613 -0.115,-1.098 -0.347,-1.454c-0.231,-0.357 -0.549,-0.535 -0.953,-0.535c-0.401,0 -0.717,0.178 -0.948,0.535c-0.232,0.356 -0.347,0.844 -0.347,1.465c0,0.613 0.114,1.1 0.344,1.459c0.23,0.36 0.543,0.54 0.941,0.54Z" style="fill:#fff;fill-opacity:0.78;fill-rule:nonzero;"/><path d="M133.818,26.026l0,-1.064c-0.493,0.795 -1.134,1.193 -1.922,1.193c-0.504,0 -0.901,-0.159 -1.192,-0.478c-0.292,-0.319 -0.437,-0.754 -0.437,-1.306l0,-3.988l1.521,0l0,3.613c0,0.641 0.214,0.961 0.642,0.961c0.48,0 0.943,-0.341 1.388,-1.022l0,-3.552l1.522,0l0,5.643l-1.522,0Z" style="fill:#fff;fill-opacity:0.78;fill-rule:nonzero;"/><path d="M137.241,26.026l0,-5.643l1.522,0l0,1.064c0.394,-0.795 0.993,-1.193 1.799,-1.193c0.096,0 0.19,0.011 0.282,0.031l0,1.357c-0.215,-0.079 -0.416,-0.118 -0.601,-0.118c-0.606,0 -1.1,0.307 -1.48,0.92l0,3.582l-1.522,0Z" style="fill:#fff;fill-opacity:0.78;fill-rule:nonzero;"/></g></g><path d="M42.417,16.877c5.701,-2.508 9.424,-6.275 9.627,-10.453c0,0 -1.505,-1.16 -6.365,-2.948c-4.268,-1.57 -7.523,-1.93 -7.523,-1.93l0.015,9.31c0,1.392 -0.559,2.812 -1.613,4.069c-3.226,-0.779 -6.791,-1.216 -10.53,-1.217l-0.002,0c-3.742,0.001 -7.311,0.439 -10.54,1.219c-1.054,-1.257 -1.614,-2.678 -1.614,-4.071l0.014,-9.31c0,0 -3.254,0.36 -7.524,1.93c-4.859,1.788 -6.362,2.948 -6.362,2.948c0.202,4.179 3.926,7.947 9.633,10.455c-5.702,2.509 -9.425,6.275 -9.627,10.453c0,0 1.504,1.16 6.364,2.947c4.269,1.57 7.523,1.93 7.523,1.93l-0.015,-9.31c0,-1.391 0.559,-2.813 1.614,-4.069c3.226,0.781 6.79,1.216 10.529,1.216l0.001,0c3.743,0 7.313,-0.437 10.541,-1.219c1.054,1.257 1.613,2.681 1.613,4.072l-0.013,9.31c0,0 3.255,-0.36 7.523,-1.93c4.86,-1.787 6.364,-2.947 6.364,-2.947c-0.203,-4.18 -3.927,-7.948 -9.633,-10.455m-16.394,2.095l-0.004,0l-0.106,-0.003c-3.376,0 -6.128,-0.826 -8.147,-2.09c2.019,-1.265 4.772,-2.093 8.154,-2.093l0.104,-0.001l0.005,0l0.107,0.001c3.377,0 6.128,0.826 8.147,2.09c-2.019,1.264 -4.773,2.093 -8.153,2.093" style="fill:#fff;fill-rule:nonzero;"/></svg>