<?xml version="1.0" encoding="UTF-8" standalone="no"?><!DOCTYPE svg PUBLIC "-//W3C//DTD SVG 1.1//EN" "http://www.w3.org/Graphics/SVG/1.1/DTD/svg11.dtd"><svg width="100%" height="100%" viewBox="0 0 143 34" version="1.1" xmlns="http://www.w3.org/2000/svg" xmlns:xlink="http://www.w3.org/1999/xlink" xml:space="preserve" xmlns:serif="http://www.serif.com/" style="fill-rule:evenodd;clip-rule:evenodd;stroke-linejoin:round;stroke-miterlimit:2;"><g id="Under-Armour-Logo" serif:id="Under Armour Logo"><g><text x="60.2px" y="15.05px" style="font-family:'Barlow-Regular', 'Barlow';font-size:13px;fill:#fff;">Sponsored b</text><text x="130.595px" y="15.05px" style="font-family:'Barlow-Regular', 'Barlow';font-size:13px;fill:#fff;">y</text></g><g><path d="M64.295,28.154c2.015,0 3.367,-1.248 3.367,-3.12l0,-5.863c0,-0.143 -0.078,-0.221 -0.221,-0.221l-1.391,0c-0.143,0 -0.221,0.078 -0.221,0.221l0,5.876c0,0.91 -0.611,1.534 -1.534,1.534c-0.923,0 -1.534,-0.624 -1.534,-1.534l0,-5.876c0,-0.143 -0.078,-0.221 -0.221,-0.221l-1.391,0c-0.143,0 -0.221,0.078 -0.221,0.221l0,5.863c0,1.872 1.352,3.12 3.367,3.12Z" style="fill:#fff;fill-rule:nonzero;"/><path d="M72.537,21.264c-0.689,0 -1.209,0.234 -1.573,0.728c-0.039,0.052 -0.078,0.026 -0.078,-0.039l0,-0.364c0,-0.143 -0.078,-0.221 -0.221,-0.221l-1.391,0c-0.143,0 -0.221,0.078 -0.221,0.221l0,6.24c0,0.143 0.078,0.221 0.221,0.221l1.391,0c0.143,0 0.221,-0.078 0.221,-0.221l0,-3.822c0,-0.702 0.442,-1.17 1.079,-1.17c0.637,0 1.053,0.481 1.053,1.17l0,3.822c0,0.143 0.078,0.221 0.221,0.221l1.391,0c0.143,0 0.221,-0.078 0.221,-0.221l0,-4.199c0,-1.482 -0.949,-2.366 -2.314,-2.366Z" style="fill:#fff;fill-rule:nonzero;"/><path d="M80.194,19.171l0,2.678c0,0.065 -0.052,0.091 -0.091,0.039c-0.325,-0.403 -0.806,-0.637 -1.482,-0.637c-1.196,0 -2.106,0.728 -2.483,1.82c-0.182,0.481 -0.247,1.04 -0.247,1.612c0,0.546 0.052,1.079 0.221,1.56c0.351,1.144 1.326,1.911 2.509,1.911c0.689,0 1.157,-0.273 1.482,-0.702c0.039,-0.052 0.091,-0.039 0.091,0.026l0,0.351c0,0.143 0.078,0.221 0.221,0.221l1.391,0c0.143,0 0.221,-0.078 0.221,-0.221l0,-8.658c0,-0.143 -0.078,-0.221 -0.221,-0.221l-1.391,0c-0.143,0 -0.221,0.078 -0.221,0.221Zm-0.273,6.825c-0.195,0.351 -0.494,0.559 -0.884,0.559c-0.429,0 -0.754,-0.208 -0.949,-0.559c-0.169,-0.312 -0.273,-0.754 -0.273,-1.274c0,-0.572 0.117,-1.04 0.312,-1.365c0.208,-0.325 0.507,-0.494 0.91,-0.494c0.377,0 0.663,0.182 0.871,0.507c0.182,0.325 0.273,0.78 0.273,1.339c0,0.533 -0.091,0.975 -0.26,1.287Z" style="fill:#fff;fill-rule:nonzero;"/><path d="M86.629,26.607c-0.728,0 -1.261,-0.299 -1.443,-0.832c-0.039,-0.104 -0.065,-0.234 -0.091,-0.403c0,-0.052 0.026,-0.078 0.078,-0.078l3.991,0c0.143,0 0.221,-0.078 0.221,-0.221c-0.013,-0.338 -0.039,-0.663 -0.078,-0.949c-0.286,-1.755 -1.235,-2.873 -2.99,-2.873c-1.456,0 -2.561,0.858 -2.912,2.132c-0.104,0.377 -0.143,0.78 -0.143,1.274c0,0.429 0.052,0.832 0.156,1.209c0.351,1.378 1.404,2.288 3.042,2.288c1.066,0 2.002,-0.442 2.561,-1.144c0.078,-0.117 0.078,-0.208 -0.026,-0.312l-0.741,-0.715c-0.104,-0.104 -0.208,-0.091 -0.312,0.026c-0.286,0.351 -0.728,0.572 -1.313,0.598Zm-0.338,-3.77c0.598,0 0.975,0.325 1.131,0.819c0.026,0.078 0.039,0.156 0.052,0.273c0.013,0.052 -0.013,0.078 -0.065,0.078l-2.21,0c-0.052,0 -0.078,-0.026 -0.065,-0.078c0.013,-0.13 0.052,-0.234 0.078,-0.325c0.143,-0.468 0.507,-0.767 1.079,-0.767Z" style="fill:#fff;fill-rule:nonzero;"/><path d="M93.844,21.277c-0.637,0 -1.092,0.299 -1.404,0.754c-0.052,0.052 -0.091,0.026 -0.091,-0.039l0,-0.403c0,-0.143 -0.078,-0.221 -0.221,-0.221l-1.391,0c-0.143,0 -0.221,0.078 -0.221,0.221l0,6.24c0,0.143 0.078,0.221 0.221,0.221l1.391,0c0.143,0 0.221,-0.078 0.221,-0.221l0,-3.484c0,-0.702 0.533,-1.105 1.118,-1.157c0.26,-0.039 0.507,-0.026 0.676,0.026c0.156,0.026 0.234,0.013 0.26,-0.143l0.247,-1.365c0.026,-0.117 0,-0.221 -0.117,-0.273c-0.156,-0.091 -0.377,-0.156 -0.689,-0.156Z" style="fill:#fff;fill-rule:nonzero;"/><path d="M104.062,28.05l1.508,0c0.156,0 0.234,-0.104 0.182,-0.247l-2.769,-8.671c-0.039,-0.117 -0.117,-0.182 -0.247,-0.182l-1.911,0c-0.13,0 -0.208,0.065 -0.247,0.182l-2.769,8.671c-0.052,0.143 0.026,0.247 0.182,0.247l1.508,0c0.13,0 0.208,-0.065 0.247,-0.182l0.364,-1.209c0.013,-0.052 0.039,-0.065 0.078,-0.065l3.185,0c0.039,0 0.065,0.013 0.078,0.065l0.364,1.209c0.039,0.117 0.117,0.182 0.247,0.182Zm-3.497,-2.964l1.157,-3.965c0.026,-0.065 0.078,-0.065 0.104,0l1.17,3.965c0.013,0.065 -0.013,0.091 -0.065,0.091l-2.301,0c-0.052,0 -0.078,-0.026 -0.065,-0.091Z" style="fill:#fff;fill-rule:nonzero;"/><path d="M110.146,21.277c-0.637,0 -1.092,0.299 -1.404,0.754c-0.052,0.052 -0.091,0.026 -0.091,-0.039l0,-0.403c0,-0.143 -0.078,-0.221 -0.221,-0.221l-1.391,0c-0.143,0 -0.221,0.078 -0.221,0.221l0,6.24c0,0.143 0.078,0.221 0.221,0.221l1.391,0c0.143,0 0.221,-0.078 0.221,-0.221l0,-3.484c0,-0.702 0.533,-1.105 1.118,-1.157c0.26,-0.039 0.507,-0.026 0.676,0.026c0.156,0.026 0.234,0.013 0.26,-0.143l0.247,-1.365c0.026,-0.117 0,-0.221 -0.117,-0.273c-0.156,-0.091 -0.377,-0.156 -0.689,-0.156Z" style="fill:#fff;fill-rule:nonzero;"/><path d="M119.207,21.264c-0.78,0 -1.469,0.325 -1.872,1.04c-0.026,0.052 -0.078,0.065 -0.104,0c-0.351,-0.663 -1.001,-1.04 -1.872,-1.04c-0.702,0 -1.274,0.247 -1.638,0.767c-0.039,0.065 -0.091,0.039 -0.091,-0.026l0,-0.416c0,-0.143 -0.078,-0.221 -0.221,-0.221l-1.391,0c-0.143,0 -0.221,0.078 -0.221,0.221l0,6.24c0,0.143 0.078,0.221 0.221,0.221l1.391,0c0.143,0 0.221,-0.078 0.221,-0.221l0,-4.056c0.078,-0.585 0.468,-0.936 1.027,-0.936c0.611,0 1.027,0.455 1.027,1.157l0,3.835c0,0.143 0.078,0.221 0.221,0.221l1.378,0c0.143,0 0.221,-0.078 0.221,-0.221l0,-3.848c0,-0.702 0.429,-1.144 1.027,-1.144c0.611,0 1.001,0.455 1.001,1.157l0,3.835c0,0.143 0.078,0.221 0.221,0.221l1.391,0c0.143,0 0.221,-0.078 0.221,-0.221l0,-4.238c0,-1.469 -0.806,-2.327 -2.158,-2.327Z" style="fill:#fff;fill-rule:nonzero;"/><path d="M125.616,28.154c1.456,0 2.535,-0.832 2.925,-2.171c0.104,-0.39 0.169,-0.858 0.169,-1.313c0,-0.481 -0.065,-0.962 -0.195,-1.365c-0.403,-1.261 -1.456,-2.041 -2.886,-2.041c-1.482,0 -2.561,0.78 -2.951,2.054c-0.13,0.39 -0.195,0.884 -0.195,1.378c0,0.468 0.065,0.936 0.182,1.326c0.377,1.313 1.469,2.132 2.951,2.132Zm0,-1.573c-0.611,0 -1.014,-0.377 -1.183,-0.975c-0.065,-0.234 -0.104,-0.572 -0.104,-0.91c0,-0.351 0.039,-0.689 0.104,-0.923c0.169,-0.572 0.572,-0.936 1.157,-0.936c0.598,0 1.001,0.351 1.17,0.936c0.065,0.234 0.104,0.572 0.104,0.923c0,0.325 -0.026,0.65 -0.104,0.91c-0.169,0.598 -0.572,0.975 -1.144,0.975Z" style="fill:#fff;fill-rule:nonzero;"/><path d="M133.793,21.589l0,4.03c-0.078,0.572 -0.481,0.962 -1.079,0.962c-0.663,0 -1.053,-0.481 -1.053,-1.17l0,-3.822c0,-0.143 -0.078,-0.221 -0.221,-0.221l-1.378,0c-0.143,0 -0.221,0.078 -0.221,0.221l0,4.277c0,1.495 1.001,2.275 2.262,2.275c0.728,0 1.261,-0.234 1.599,-0.689c0.039,-0.052 0.091,-0.039 0.091,0.026l0,0.351c0,0.143 0.078,0.221 0.221,0.221l1.391,0c0.143,0 0.221,-0.078 0.221,-0.221l0,-6.24c0,-0.143 -0.078,-0.221 -0.221,-0.221l-1.391,0c-0.143,0 -0.221,0.078 -0.221,0.221Z" style="fill:#fff;fill-rule:nonzero;"/><path d="M140.306,21.277c-0.637,0 -1.092,0.299 -1.404,0.754c-0.052,0.052 -0.091,0.026 -0.091,-0.039l0,-0.403c0,-0.143 -0.078,-0.221 -0.221,-0.221l-1.391,0c-0.143,0 -0.221,0.078 -0.221,0.221l0,6.24c0,0.143 0.078,0.221 0.221,0.221l1.391,0c0.143,0 0.221,-0.078 0.221,-0.221l0,-3.484c0,-0.702 0.533,-1.105 1.118,-1.157c0.26,-0.039 0.507,-0.026 0.676,0.026c0.156,0.026 0.234,0.013 0.26,-0.143l0.247,-1.365c0.026,-0.117 0,-0.221 -0.117,-0.273c-0.156,-0.091 -0.377,-0.156 -0.689,-0.156Z" style="fill:#fff;fill-rule:nonzero;"/></g></g><path d="M42.417,16.877c5.701,-2.508 9.424,-6.275 9.627,-10.453c0,0 -1.505,-1.16 -6.365,-2.948c-4.268,-1.57 -7.523,-1.93 -7.523,-1.93l0.015,9.31c0,1.392 -0.559,2.812 -1.613,4.069c-3.226,-0.779 -6.791,-1.216 -10.53,-1.217l-0.002,0c-3.742,0.001 -7.311,0.439 -10.54,1.219c-1.054,-1.257 -1.614,-2.678 -1.614,-4.071l0.014,-9.31c0,0 -3.254,0.36 -7.524,1.93c-4.859,1.788 -6.362,2.948 -6.362,2.948c0.202,4.179 3.926,7.947 9.633,10.455c-5.702,2.509 -9.425,6.275 -9.627,10.453c0,0 1.504,1.16 6.364,2.947c4.269,1.57 7.523,1.93 7.523,1.93l-0.015,-9.31c0,-1.391 0.559,-2.813 1.614,-4.069c3.226,0.781 6.79,1.216 10.529,1.216l0.001,0c3.743,0 7.313,-0.437 10.541,-1.219c1.054,1.257 1.613,2.681 1.613,4.072l-0.013,9.31c0,0 3.255,-0.36 7.523,-1.93c4.86,-1.787 6.364,-2.947 6.364,-2.947c-0.203,-4.18 -3.927,-7.948 -9.633,-10.455m-16.394,2.095l-0.004,0l-0.106,-0.003c-3.376,0 -6.128,-0.826 -8.147,-2.09c2.019,-1.265 4.772,-2.093 8.154,-2.093l0.104,-0.001l0.005,0l0.107,0.001c3.377,0 6.128,0.826 8.147,2.09c-2.019,1.264 -4.773,2.093 -8.153,2.093" style="fill:#fff;fill-rule:nonzero;"/></svg>