<?xml version="1.0" encoding="UTF-8" standalone="no"?><!DOCTYPE svg PUBLIC "-//W3C//DTD SVG 1.1//EN" "http://www.w3.org/Graphics/SVG/1.1/DTD/svg11.dtd"><svg width="100%" height="100%" viewBox="0 0 143 34" version="1.1" xmlns="http://www.w3.org/2000/svg" xmlns:xlink="http://www.w3.org/1999/xlink" xml:space="preserve" xmlns:serif="http://www.serif.com/" style="fill-rule:evenodd;clip-rule:evenodd;stroke-linejoin:round;stroke-miterlimit:2;"><g id="Under-Armour-Logo" serif:id="Under Armour Logo"><g><g><path d="M64.074,15.154c1.937,0 3.029,-0.975 3.029,-2.392c0,-1.482 -1.222,-2.093 -2.821,-2.743c-1.573,-0.611 -2.301,-0.923 -2.301,-1.898c0,-0.949 0.676,-1.469 1.898,-1.469c1.456,0 2.236,0.741 2.236,1.716l0,0.195c0,0.104 0.065,0.169 0.169,0.169l0.572,0c0.104,0 0.169,-0.065 0.169,-0.169l0,-0.247c0,-1.482 -1.17,-2.47 -3.094,-2.47c-1.768,0 -2.86,0.832 -2.86,2.301c0,1.495 1.157,1.976 2.717,2.6c1.69,0.702 2.392,1.131 2.392,2.054c0,0.91 -0.676,1.547 -2.041,1.547c-1.43,0 -2.301,-0.702 -2.301,-1.677l0,-0.312c0,-0.104 -0.065,-0.169 -0.169,-0.169l-0.559,0c-0.104,0 -0.169,0.065 -0.169,0.169l0,0.364c0,1.469 1.209,2.431 3.133,2.431Z" style="fill:#fff;fill-rule:nonzero;"/><path d="M73.967,10.11c-0.312,-1.053 -1.144,-1.742 -2.379,-1.742c-0.689,0 -1.274,0.286 -1.651,0.793c-0.039,0.039 -0.078,0.026 -0.078,-0.026l0,-0.494c0,-0.104 -0.065,-0.169 -0.169,-0.169l-0.585,0c-0.104,0 -0.169,0.065 -0.169,0.169l0,8.762c0,0.104 0.065,0.169 0.169,0.169l0.585,0c0.104,0 0.169,-0.065 0.169,-0.169l0,-3.003c0,-0.052 0.039,-0.078 0.078,-0.026c0.377,0.494 0.962,0.78 1.651,0.78c1.261,0 2.093,-0.702 2.405,-1.781c0.13,-0.442 0.156,-0.975 0.156,-1.612c0,-0.663 -0.039,-1.196 -0.182,-1.651Zm-1.04,3.289c-0.221,0.559 -0.741,0.949 -1.443,0.949c-0.689,0 -1.157,-0.403 -1.365,-0.975c-0.156,-0.351 -0.234,-0.741 -0.234,-1.612c0,-0.858 0.065,-1.248 0.221,-1.586c0.208,-0.585 0.676,-1.001 1.391,-1.001c0.728,0 1.287,0.39 1.495,1.014c0.156,0.351 0.234,0.728 0.234,1.573c0,0.897 -0.104,1.287 -0.299,1.638Z" style="fill:#fff;fill-rule:nonzero;"/><path d="M78.504,15.154c1.235,0 2.184,-0.689 2.522,-1.807c0.13,-0.429 0.182,-0.975 0.182,-1.599c0,-0.611 -0.052,-1.157 -0.182,-1.599c-0.325,-1.092 -1.274,-1.781 -2.522,-1.781c-1.287,0 -2.223,0.689 -2.561,1.794c-0.117,0.416 -0.169,0.949 -0.169,1.586c0,0.624 0.052,1.17 0.182,1.599c0.338,1.118 1.274,1.807 2.548,1.807Zm0,-0.806c-0.871,0 -1.495,-0.494 -1.69,-1.274c-0.078,-0.286 -0.104,-0.754 -0.104,-1.313c0,-0.546 0.026,-1.027 0.104,-1.313c0.208,-0.767 0.819,-1.274 1.664,-1.274c0.871,0 1.495,0.507 1.69,1.274c0.078,0.286 0.104,0.741 0.104,1.313c0,0.52 -0.026,1.001 -0.104,1.313c-0.208,0.78 -0.832,1.274 -1.664,1.274Z" style="fill:#fff;fill-rule:nonzero;"/><path d="M85.81,8.381c-0.754,0 -1.365,0.26 -1.742,0.78c-0.026,0.052 -0.065,0.013 -0.065,-0.039l0,-0.481c0,-0.104 -0.065,-0.169 -0.169,-0.169l-0.585,0c-0.104,0 -0.169,0.065 -0.169,0.169l0,6.24c0,0.104 0.065,0.169 0.169,0.169l0.585,0c0.104,0 0.169,-0.065 0.169,-0.169l0,-4.329c0.091,-0.819 0.715,-1.365 1.599,-1.365c0.923,0 1.547,0.663 1.547,1.625l0,4.069c0,0.104 0.065,0.169 0.169,0.169l0.585,0c0.104,0 0.169,-0.065 0.169,-0.169l0,-4.251c0,-1.365 -0.897,-2.249 -2.262,-2.249Z" style="fill:#fff;fill-rule:nonzero;"/><path d="M92.245,15.115c1.469,0 2.418,-0.741 2.418,-1.859c0,-1.287 -1.261,-1.638 -2.366,-1.95c-0.884,-0.26 -1.586,-0.494 -1.586,-1.144c0,-0.624 0.598,-1.001 1.469,-1.001c0.975,0 1.56,0.468 1.56,1.04l0,0.078c0,0.052 0.065,0.091 0.169,0.091l0.533,0c0.104,0 0.169,-0.065 0.169,-0.169c0,-1.027 -0.962,-1.794 -2.418,-1.794c-1.404,0 -2.379,0.702 -2.379,1.82c0,1.235 1.196,1.612 2.314,1.937c0.858,0.26 1.612,0.455 1.612,1.157c0,0.611 -0.598,1.079 -1.508,1.079c-0.936,0 -1.56,-0.52 -1.56,-1.066l0,-0.117c0,-0.065 -0.065,-0.117 -0.169,-0.117l-0.559,0c-0.104,0 -0.169,0.065 -0.169,0.169l0,0.117c0,0.949 0.975,1.729 2.47,1.729Z" style="fill:#fff;fill-rule:nonzero;"/><path d="M98.875,15.154c1.235,0 2.184,-0.689 2.522,-1.807c0.13,-0.429 0.182,-0.975 0.182,-1.599c0,-0.611 -0.052,-1.157 -0.182,-1.599c-0.325,-1.092 -1.274,-1.781 -2.522,-1.781c-1.287,0 -2.223,0.689 -2.561,1.794c-0.117,0.416 -0.169,0.949 -0.169,1.586c0,0.624 0.052,1.17 0.182,1.599c0.338,1.118 1.274,1.807 2.548,1.807Zm0,-0.806c-0.871,0 -1.495,-0.494 -1.69,-1.274c-0.078,-0.286 -0.104,-0.754 -0.104,-1.313c0,-0.546 0.026,-1.027 0.104,-1.313c0.208,-0.767 0.819,-1.274 1.664,-1.274c0.871,0 1.495,0.507 1.69,1.274c0.078,0.286 0.104,0.741 0.104,1.313c0,0.52 -0.026,1.001 -0.104,1.313c-0.208,0.78 -0.832,1.274 -1.664,1.274Z" style="fill:#fff;fill-rule:nonzero;"/><path d="M106.103,8.407c-0.754,0 -1.313,0.39 -1.664,0.988c-0.026,0.052 -0.065,0.039 -0.065,-0.026l0,-0.728c0,-0.104 -0.065,-0.169 -0.169,-0.169l-0.585,0c-0.104,0 -0.169,0.065 -0.169,0.169l0,6.24c0,0.104 0.065,0.169 0.169,0.169l0.585,0c0.104,0 0.169,-0.065 0.169,-0.169l0,-3.796c0,-0.975 0.663,-1.677 1.56,-1.703c0.273,-0.013 0.481,0.013 0.637,0.065c0.117,0.039 0.182,0 0.208,-0.104l0.13,-0.572c0.026,-0.091 0,-0.169 -0.091,-0.208c-0.169,-0.091 -0.39,-0.156 -0.715,-0.156Z" style="fill:#fff;fill-rule:nonzero;"/><path d="M110.679,14.361c-0.949,0 -1.586,-0.52 -1.768,-1.274c-0.052,-0.195 -0.078,-0.52 -0.078,-0.949c0,-0.039 0.026,-0.065 0.065,-0.065l4.16,0c0.104,0 0.169,-0.065 0.169,-0.169c0,-0.611 -0.013,-0.949 -0.078,-1.3c-0.234,-1.365 -1.053,-2.236 -2.6,-2.236c-1.287,0 -2.223,0.741 -2.509,1.859c-0.104,0.403 -0.117,0.845 -0.117,1.508c0,0.728 0.065,1.313 0.247,1.794c0.351,1.001 1.196,1.625 2.431,1.625c1.17,0 2.015,-0.572 2.418,-1.417c0.052,-0.091 0.013,-0.169 -0.078,-0.221l-0.377,-0.208c-0.091,-0.052 -0.182,-0.013 -0.221,0.078c-0.299,0.585 -0.858,0.962 -1.664,0.975Zm-0.13,-5.187c0.897,0 1.495,0.52 1.677,1.274c0.039,0.182 0.065,0.481 0.078,0.832c0,0.039 -0.026,0.065 -0.065,0.065l-3.341,0c-0.039,0 -0.065,-0.026 -0.065,-0.065c0.013,-0.377 0.039,-0.676 0.104,-0.884c0.169,-0.715 0.728,-1.222 1.612,-1.222Z" style="fill:#fff;fill-rule:nonzero;"/><path d="M119.103,6.119l0,3.003c0,0.052 -0.039,0.078 -0.078,0.026c-0.377,-0.494 -0.962,-0.78 -1.651,-0.78c-1.261,0 -2.093,0.702 -2.405,1.781c-0.13,0.442 -0.156,0.975 -0.156,1.612c0,0.663 0.039,1.196 0.182,1.651c0.312,1.053 1.144,1.742 2.379,1.742c0.689,0 1.274,-0.286 1.651,-0.793c0.039,-0.039 0.078,-0.026 0.078,0.026l0,0.494c0,0.104 0.065,0.169 0.169,0.169l0.585,0c0.104,0 0.169,-0.065 0.169,-0.169l0,-8.762c0,-0.104 -0.065,-0.169 -0.169,-0.169l-0.585,0c-0.104,0 -0.169,0.065 -0.169,0.169Zm-0.247,7.228c-0.208,0.585 -0.676,1.001 -1.391,1.001c-0.728,0 -1.287,-0.39 -1.495,-1.014c-0.156,-0.351 -0.234,-0.728 -0.234,-1.573c0,-0.897 0.104,-1.287 0.299,-1.638c0.221,-0.559 0.741,-0.949 1.443,-0.949c0.689,0 1.157,0.403 1.365,0.975c0.156,0.351 0.234,0.741 0.234,1.612c0,0.858 -0.065,1.248 -0.221,1.586Z" style="fill:#fff;fill-rule:nonzero;"/><path d="M129.763,10.149c-0.312,-1.079 -1.144,-1.781 -2.405,-1.781c-0.689,0 -1.274,0.286 -1.651,0.78c-0.039,0.052 -0.078,0.026 -0.078,-0.026l0,-3.003c0,-0.104 -0.065,-0.169 -0.169,-0.169l-0.585,0c-0.104,0 -0.169,0.065 -0.169,0.169l0,8.762c0,0.104 0.065,0.169 0.169,0.169l0.585,0c0.104,0 0.169,-0.065 0.169,-0.169l0,-0.494c0,-0.052 0.039,-0.065 0.078,-0.026c0.377,0.507 0.962,0.793 1.651,0.793c1.235,0 2.067,-0.689 2.379,-1.742c0.143,-0.455 0.182,-0.988 0.182,-1.651c0,-0.637 -0.026,-1.17 -0.156,-1.612Zm-1.001,3.185c-0.208,0.624 -0.767,1.014 -1.495,1.014c-0.715,0 -1.183,-0.416 -1.391,-1.001c-0.156,-0.338 -0.221,-0.728 -0.221,-1.586c0,-0.871 0.078,-1.261 0.234,-1.612c0.208,-0.572 0.676,-0.975 1.365,-0.975c0.702,0 1.222,0.39 1.443,0.949c0.195,0.351 0.299,0.741 0.299,1.638c0,0.845 -0.078,1.222 -0.234,1.573Z" style="fill:#fff;fill-rule:nonzero;"/><path d="M131.336,17.65l0.091,0c1.443,0 1.833,-0.364 2.418,-2.028l2.392,-6.955c0.039,-0.117 -0.026,-0.195 -0.143,-0.195l-0.624,0c-0.091,0 -0.156,0.039 -0.182,0.143l-1.638,5.096c-0.013,0.065 -0.065,0.065 -0.078,0l-1.677,-5.096c-0.026,-0.091 -0.104,-0.143 -0.195,-0.143l-0.611,0c-0.117,0 -0.182,0.078 -0.143,0.195l2.184,6.344c0.013,0.039 0.013,0.052 0,0.078c-0.442,1.456 -0.728,1.768 -1.703,1.768l-0.091,0c-0.052,0 -0.091,0.065 -0.091,0.169l0,0.455c0,0.104 0.039,0.169 0.091,0.169Z" style="fill:#fff;fill-rule:nonzero;"/></g></g><g><path d="M64.295,28.154c2.015,0 3.367,-1.248 3.367,-3.12l0,-5.863c0,-0.143 -0.078,-0.221 -0.221,-0.221l-1.391,0c-0.143,0 -0.221,0.078 -0.221,0.221l0,5.876c0,0.91 -0.611,1.534 -1.534,1.534c-0.923,0 -1.534,-0.624 -1.534,-1.534l0,-5.876c0,-0.143 -0.078,-0.221 -0.221,-0.221l-1.391,0c-0.143,0 -0.221,0.078 -0.221,0.221l0,5.863c0,1.872 1.352,3.12 3.367,3.12Z" style="fill:#fff;fill-rule:nonzero;"/><path d="M72.537,21.264c-0.689,0 -1.209,0.234 -1.573,0.728c-0.039,0.052 -0.078,0.026 -0.078,-0.039l0,-0.364c0,-0.143 -0.078,-0.221 -0.221,-0.221l-1.391,0c-0.143,0 -0.221,0.078 -0.221,0.221l0,6.24c0,0.143 0.078,0.221 0.221,0.221l1.391,0c0.143,0 0.221,-0.078 0.221,-0.221l0,-3.822c0,-0.702 0.442,-1.17 1.079,-1.17c0.637,0 1.053,0.481 1.053,1.17l0,3.822c0,0.143 0.078,0.221 0.221,0.221l1.391,0c0.143,0 0.221,-0.078 0.221,-0.221l0,-4.199c0,-1.482 -0.949,-2.366 -2.314,-2.366Z" style="fill:#fff;fill-rule:nonzero;"/><path d="M80.194,19.171l0,2.678c0,0.065 -0.052,0.091 -0.091,0.039c-0.325,-0.403 -0.806,-0.637 -1.482,-0.637c-1.196,0 -2.106,0.728 -2.483,1.82c-0.182,0.481 -0.247,1.04 -0.247,1.612c0,0.546 0.052,1.079 0.221,1.56c0.351,1.144 1.326,1.911 2.509,1.911c0.689,0 1.157,-0.273 1.482,-0.702c0.039,-0.052 0.091,-0.039 0.091,0.026l0,0.351c0,0.143 0.078,0.221 0.221,0.221l1.391,0c0.143,0 0.221,-0.078 0.221,-0.221l0,-8.658c0,-0.143 -0.078,-0.221 -0.221,-0.221l-1.391,0c-0.143,0 -0.221,0.078 -0.221,0.221Zm-0.273,6.825c-0.195,0.351 -0.494,0.559 -0.884,0.559c-0.429,0 -0.754,-0.208 -0.949,-0.559c-0.169,-0.312 -0.273,-0.754 -0.273,-1.274c0,-0.572 0.117,-1.04 0.312,-1.365c0.208,-0.325 0.507,-0.494 0.91,-0.494c0.377,0 0.663,0.182 0.871,0.507c0.182,0.325 0.273,0.78 0.273,1.339c0,0.533 -0.091,0.975 -0.26,1.287Z" style="fill:#fff;fill-rule:nonzero;"/><path d="M86.629,26.607c-0.728,0 -1.261,-0.299 -1.443,-0.832c-0.039,-0.104 -0.065,-0.234 -0.091,-0.403c0,-0.052 0.026,-0.078 0.078,-0.078l3.991,0c0.143,0 0.221,-0.078 0.221,-0.221c-0.013,-0.338 -0.039,-0.663 -0.078,-0.949c-0.286,-1.755 -1.235,-2.873 -2.99,-2.873c-1.456,0 -2.561,0.858 -2.912,2.132c-0.104,0.377 -0.143,0.78 -0.143,1.274c0,0.429 0.052,0.832 0.156,1.209c0.351,1.378 1.404,2.288 3.042,2.288c1.066,0 2.002,-0.442 2.561,-1.144c0.078,-0.117 0.078,-0.208 -0.026,-0.312l-0.741,-0.715c-0.104,-0.104 -0.208,-0.091 -0.312,0.026c-0.286,0.351 -0.728,0.572 -1.313,0.598Zm-0.338,-3.77c0.598,0 0.975,0.325 1.131,0.819c0.026,0.078 0.039,0.156 0.052,0.273c0.013,0.052 -0.013,0.078 -0.065,0.078l-2.21,0c-0.052,0 -0.078,-0.026 -0.065,-0.078c0.013,-0.13 0.052,-0.234 0.078,-0.325c0.143,-0.468 0.507,-0.767 1.079,-0.767Z" style="fill:#fff;fill-rule:nonzero;"/><path d="M93.844,21.277c-0.637,0 -1.092,0.299 -1.404,0.754c-0.052,0.052 -0.091,0.026 -0.091,-0.039l0,-0.403c0,-0.143 -0.078,-0.221 -0.221,-0.221l-1.391,0c-0.143,0 -0.221,0.078 -0.221,0.221l0,6.24c0,0.143 0.078,0.221 0.221,0.221l1.391,0c0.143,0 0.221,-0.078 0.221,-0.221l0,-3.484c0,-0.702 0.533,-1.105 1.118,-1.157c0.26,-0.039 0.507,-0.026 0.676,0.026c0.156,0.026 0.234,0.013 0.26,-0.143l0.247,-1.365c0.026,-0.117 0,-0.221 -0.117,-0.273c-0.156,-0.091 -0.377,-0.156 -0.689,-0.156Z" style="fill:#fff;fill-rule:nonzero;"/><path d="M104.062,28.05l1.508,0c0.156,0 0.234,-0.104 0.182,-0.247l-2.769,-8.671c-0.039,-0.117 -0.117,-0.182 -0.247,-0.182l-1.911,0c-0.13,0 -0.208,0.065 -0.247,0.182l-2.769,8.671c-0.052,0.143 0.026,0.247 0.182,0.247l1.508,0c0.13,0 0.208,-0.065 0.247,-0.182l0.364,-1.209c0.013,-0.052 0.039,-0.065 0.078,-0.065l3.185,0c0.039,0 0.065,0.013 0.078,0.065l0.364,1.209c0.039,0.117 0.117,0.182 0.247,0.182Zm-3.497,-2.964l1.157,-3.965c0.026,-0.065 0.078,-0.065 0.104,0l1.17,3.965c0.013,0.065 -0.013,0.091 -0.065,0.091l-2.301,0c-0.052,0 -0.078,-0.026 -0.065,-0.091Z" style="fill:#fff;fill-rule:nonzero;"/><path d="M110.146,21.277c-0.637,0 -1.092,0.299 -1.404,0.754c-0.052,0.052 -0.091,0.026 -0.091,-0.039l0,-0.403c0,-0.143 -0.078,-0.221 -0.221,-0.221l-1.391,0c-0.143,0 -0.221,0.078 -0.221,0.221l0,6.24c0,0.143 0.078,0.221 0.221,0.221l1.391,0c0.143,0 0.221,-0.078 0.221,-0.221l0,-3.484c0,-0.702 0.533,-1.105 1.118,-1.157c0.26,-0.039 0.507,-0.026 0.676,0.026c0.156,0.026 0.234,0.013 0.26,-0.143l0.247,-1.365c0.026,-0.117 0,-0.221 -0.117,-0.273c-0.156,-0.091 -0.377,-0.156 -0.689,-0.156Z" style="fill:#fff;fill-rule:nonzero;"/><path d="M119.207,21.264c-0.78,0 -1.469,0.325 -1.872,1.04c-0.026,0.052 -0.078,0.065 -0.104,0c-0.351,-0.663 -1.001,-1.04 -1.872,-1.04c-0.702,0 -1.274,0.247 -1.638,0.767c-0.039,0.065 -0.091,0.039 -0.091,-0.026l0,-0.416c0,-0.143 -0.078,-0.221 -0.221,-0.221l-1.391,0c-0.143,0 -0.221,0.078 -0.221,0.221l0,6.24c0,0.143 0.078,0.221 0.221,0.221l1.391,0c0.143,0 0.221,-0.078 0.221,-0.221l0,-4.056c0.078,-0.585 0.468,-0.936 1.027,-0.936c0.611,0 1.027,0.455 1.027,1.157l0,3.835c0,0.143 0.078,0.221 0.221,0.221l1.378,0c0.143,0 0.221,-0.078 0.221,-0.221l0,-3.848c0,-0.702 0.429,-1.144 1.027,-1.144c0.611,0 1.001,0.455 1.001,1.157l0,3.835c0,0.143 0.078,0.221 0.221,0.221l1.391,0c0.143,0 0.221,-0.078 0.221,-0.221l0,-4.238c0,-1.469 -0.806,-2.327 -2.158,-2.327Z" style="fill:#fff;fill-rule:nonzero;"/><path d="M125.616,28.154c1.456,0 2.535,-0.832 2.925,-2.171c0.104,-0.39 0.169,-0.858 0.169,-1.313c0,-0.481 -0.065,-0.962 -0.195,-1.365c-0.403,-1.261 -1.456,-2.041 -2.886,-2.041c-1.482,0 -2.561,0.78 -2.951,2.054c-0.13,0.39 -0.195,0.884 -0.195,1.378c0,0.468 0.065,0.936 0.182,1.326c0.377,1.313 1.469,2.132 2.951,2.132Zm0,-1.573c-0.611,0 -1.014,-0.377 -1.183,-0.975c-0.065,-0.234 -0.104,-0.572 -0.104,-0.91c0,-0.351 0.039,-0.689 0.104,-0.923c0.169,-0.572 0.572,-0.936 1.157,-0.936c0.598,0 1.001,0.351 1.17,0.936c0.065,0.234 0.104,0.572 0.104,0.923c0,0.325 -0.026,0.65 -0.104,0.91c-0.169,0.598 -0.572,0.975 -1.144,0.975Z" style="fill:#fff;fill-rule:nonzero;"/><path d="M133.793,21.589l0,4.03c-0.078,0.572 -0.481,0.962 -1.079,0.962c-0.663,0 -1.053,-0.481 -1.053,-1.17l0,-3.822c0,-0.143 -0.078,-0.221 -0.221,-0.221l-1.378,0c-0.143,0 -0.221,0.078 -0.221,0.221l0,4.277c0,1.495 1.001,2.275 2.262,2.275c0.728,0 1.261,-0.234 1.599,-0.689c0.039,-0.052 0.091,-0.039 0.091,0.026l0,0.351c0,0.143 0.078,0.221 0.221,0.221l1.391,0c0.143,0 0.221,-0.078 0.221,-0.221l0,-6.24c0,-0.143 -0.078,-0.221 -0.221,-0.221l-1.391,0c-0.143,0 -0.221,0.078 -0.221,0.221Z" style="fill:#fff;fill-rule:nonzero;"/><path d="M140.306,21.277c-0.637,0 -1.092,0.299 -1.404,0.754c-0.052,0.052 -0.091,0.026 -0.091,-0.039l0,-0.403c0,-0.143 -0.078,-0.221 -0.221,-0.221l-1.391,0c-0.143,0 -0.221,0.078 -0.221,0.221l0,6.24c0,0.143 0.078,0.221 0.221,0.221l1.391,0c0.143,0 0.221,-0.078 0.221,-0.221l0,-3.484c0,-0.702 0.533,-1.105 1.118,-1.157c0.26,-0.039 0.507,-0.026 0.676,0.026c0.156,0.026 0.234,0.013 0.26,-0.143l0.247,-1.365c0.026,-0.117 0,-0.221 -0.117,-0.273c-0.156,-0.091 -0.377,-0.156 -0.689,-0.156Z" style="fill:#fff;fill-rule:nonzero;"/></g></g><path d="M42.417,16.877c5.701,-2.508 9.424,-6.275 9.627,-10.453c0,0 -1.505,-1.16 -6.365,-2.948c-4.268,-1.57 -7.523,-1.93 -7.523,-1.93l0.015,9.31c0,1.392 -0.559,2.812 -1.613,4.069c-3.226,-0.779 -6.791,-1.216 -10.53,-1.217l-0.002,0c-3.742,0.001 -7.311,0.439 -10.54,1.219c-1.054,-1.257 -1.614,-2.678 -1.614,-4.071l0.014,-9.31c0,0 -3.254,0.36 -7.524,1.93c-4.859,1.788 -6.362,2.948 -6.362,2.948c0.202,4.179 3.926,7.947 9.633,10.455c-5.702,2.509 -9.425,6.275 -9.627,10.453c0,0 1.504,1.16 6.364,2.947c4.269,1.57 7.523,1.93 7.523,1.93l-0.015,-9.31c0,-1.391 0.559,-2.813 1.614,-4.069c3.226,0.781 6.79,1.216 10.529,1.216l0.001,0c3.743,0 7.313,-0.437 10.541,-1.219c1.054,1.257 1.613,2.681 1.613,4.072l-0.013,9.31c0,0 3.255,-0.36 7.523,-1.93c4.86,-1.787 6.364,-2.947 6.364,-2.947c-0.203,-4.18 -3.927,-7.948 -9.633,-10.455m-16.394,2.095l-0.004,0l-0.106,-0.003c-3.376,0 -6.128,-0.826 -8.147,-2.09c2.019,-1.265 4.772,-2.093 8.154,-2.093l0.104,-0.001l0.005,0l0.107,0.001c3.377,0 6.128,0.826 8.147,2.09c-2.019,1.264 -4.773,2.093 -8.153,2.093" style="fill:#fff;fill-rule:nonzero;"/></svg>